<svg width="16" height="13" viewBox="0 0 16 13" fill="none" xmlns="http://www.w3.org/2000/svg">
<path fill-rule="evenodd" clip-rule="evenodd" d="M15.7285 1.58083C16.0905 1.21971 16.0905 0.632657 15.7285 0.271536C15.3673 -0.0905119 14.7812 -0.0905119 14.4192 0.271536L4.64666 10.044L1.58083 6.97914C1.21971 6.61709 0.632657 6.61709 0.271536 6.97914C-0.0905119 7.34118 -0.0905119 7.92731 0.271536 8.28843L3.94572 11.9635C3.96053 11.9793 3.97442 11.995 3.99016 12.0098C4.17072 12.1913 4.40777 12.2811 4.64481 12.2811C4.68926 12.2811 4.7337 12.2784 4.77815 12.2719C4.96982 12.245 5.15501 12.158 5.30224 12.0098C5.31798 11.995 5.33279 11.9793 5.34668 11.9626L15.7285 1.58083Z" fill="#3F434A"/>
</svg>
