<svg width="8" height="9" viewBox="0 0 8 9" fill="none" xmlns="http://www.w3.org/2000/svg">
<path d="M0.656386 0.968501L3.99656 4.30619L7.30119 1.00169C7.52645 0.800998 7.76011 0.920745 7.85273 1.02178C7.94536 1.12281 7.99825 1.36111 7.83118 1.53169L4.52582 4.83545L7.83118 8.13778C7.97819 8.26111 7.97819 8.50279 7.86018 8.63742C7.74217 8.77204 7.52535 8.85023 7.32034 8.69058L3.99656 5.36471L0.66862 8.6919C0.523118 8.82242 0.282705 8.79593 0.163591 8.66604C0.0444761 8.53616 -0.00073212 8.31136 0.151583 8.15274L3.46729 4.83545L0.165091 1.53169C0.0445877 1.39822 0.0025054 1.15486 0.165091 1.00169C0.327677 0.848518 0.570092 0.869891 0.656386 0.968501Z" fill="black"/>
</svg>
