<svg width="16" height="16" viewBox="0 0 16 16" fill="none" xmlns="http://www.w3.org/2000/svg">
<path fill-rule="evenodd" clip-rule="evenodd" d="M14.1454 15.6818C14.5697 16.106 15.2575 16.106 15.6817 15.6818C16.1061 15.2576 16.1061 14.5696 15.6817 14.1454L9.53638 7.99997L15.6818 1.85455C16.1061 1.43029 16.1061 0.742445 15.6818 0.318191C15.2575 -0.106064 14.5697 -0.106064 14.1454 0.318191L7.99998 6.46357L1.85455 0.318204C1.43029 -0.10605 0.742445 -0.10605 0.318191 0.318204C-0.106064 0.742458 -0.106064 1.43032 0.318191 1.85457L6.46359 7.99997L0.318204 14.1454C-0.10605 14.5696 -0.10605 15.2575 0.318204 15.6818C0.742458 16.106 1.43031 16.106 1.85456 15.6818L7.99998 9.53637L14.1454 15.6818Z" fill="#3F434A"/>
</svg>
