<svg width="19" height="20" viewBox="0 0 19 20" fill="none" xmlns="http://www.w3.org/2000/svg">
<path fill-rule="evenodd" clip-rule="evenodd" d="M6.96021 2.13128C7.13163 1.96719 7.36413 1.875 7.60656 1.875H11.3935C11.6359 1.875 11.8684 1.96719 12.0399 2.13128C12.2113 2.29538 12.3076 2.51794 12.3076 2.75V3.62488H6.69248V2.75C6.69248 2.51794 6.78878 2.29538 6.96021 2.13128ZM4.73371 3.62488V2.75C4.73371 2.02065 5.03639 1.32118 5.57515 0.805456C6.11392 0.289731 6.84464 0 7.60656 0H11.3935C12.1554 0 12.8862 0.289731 13.4249 0.805456C13.9637 1.32118 14.2664 2.02065 14.2664 2.75V3.62488H18.0206C18.5615 3.62488 19 4.04461 19 4.56238C19 5.08014 18.5615 5.49988 18.0206 5.49988H17.1066V17.25C17.1066 17.9793 16.8039 18.6788 16.2651 19.1945C15.7264 19.7103 14.9956 20 14.2337 20H4.76636C4.00443 20 3.27371 19.7103 2.73494 19.1945C2.19618 18.6788 1.89351 17.9793 1.89351 17.25V5.49988H0.979382C0.438484 5.49988 0 5.08014 0 4.56238C0 4.04461 0.438484 3.62488 0.979382 3.62488H4.73371ZM3.85227 17.25V5.5H15.1478V17.25C15.1478 17.4821 15.0515 17.7046 14.8801 17.8687C14.7086 18.0328 14.4761 18.125 14.2337 18.125H4.76636C4.52393 18.125 4.29142 18.0328 4.12 17.8687C3.94857 17.7046 3.85227 17.4821 3.85227 17.25ZM7.60619 8.15625C8.14709 8.15625 8.58557 8.57598 8.58557 9.09375V14.5312C8.58557 15.049 8.14709 15.4688 7.60619 15.4688C7.06529 15.4688 6.62681 15.049 6.62681 14.5312V9.09375C6.62681 8.57598 7.06529 8.15625 7.60619 8.15625ZM12.3735 9.09375C12.3735 8.57598 11.935 8.15625 11.3941 8.15625C10.8532 8.15625 10.4147 8.57598 10.4147 9.09375V14.5312C10.4147 15.049 10.8532 15.4688 11.3941 15.4688C11.935 15.4688 12.3735 15.049 12.3735 14.5312V9.09375Z" />
</svg>
