<svg width="29" height="28" viewBox="0 0 29 28" fill="none" xmlns="http://www.w3.org/2000/svg">
<path d="M14.367 24.4419L8.51589 27.5772L8.37988 27.6391C7.3861 28.015 6.44887 27.9389 5.73491 27.3029C5.06485 26.706 4.8222 25.8494 4.96104 24.8642L5.93915 18.1108L1.52023 13.4669C0.755025 12.6876 0.457228 11.732 0.714677 10.731C0.999909 9.62192 1.93662 8.98326 3.28686 8.76944L9.16028 7.88328L12.2357 1.51169C12.7133 0.612732 13.4592 0.0798012 14.3967 0.104849C15.3144 0.129368 16.0401 0.691167 16.6099 1.6931L19.5847 7.92695L26.17 8.84191C27.2164 9.02252 27.9877 9.5675 28.296 10.4763C28.6035 11.383 28.3108 12.3005 27.5221 13.2366L22.7415 18.1141L23.8145 24.8625C23.9852 26.0293 23.7809 26.9542 23.0004 27.5039C22.2977 27.9989 21.4185 27.9989 20.407 27.6509L20.2398 27.578L14.367 24.4419Z" fill="#555555"/>
</svg>
