<svg width="38" height="38" viewBox="0 0 38 38" fill="none" xmlns="http://www.w3.org/2000/svg">
<path d="M18.9162 3.1665C10.4154 3.1665 3.49951 10.2693 3.49951 18.9998C3.49951 27.7303 10.4154 34.8332 18.9162 34.8332C27.4169 34.8332 34.3328 27.7303 34.3328 18.9998C34.3328 10.2693 27.4169 3.1665 18.9162 3.1665ZM18.9162 31.6665C12.1159 31.6665 6.58285 25.9839 6.58285 18.9998C6.58285 12.0158 12.1159 6.33317 18.9162 6.33317C25.7165 6.33317 31.2495 12.0158 31.2495 18.9998C31.2495 25.9839 25.7165 31.6665 18.9162 31.6665Z" fill="black"/>
<path d="M17.3745 18.3669C17.3745 17.8422 17.7886 17.4169 18.2995 17.4169H19.5328C20.0437 17.4169 20.4578 17.8422 20.4578 18.3669V25.9669C20.4578 26.4916 20.0437 26.9169 19.5328 26.9169H18.2995C17.7886 26.9169 17.3745 26.4916 17.3745 25.9669V18.3669ZM17.3745 12.0336C17.3745 11.5089 17.7886 11.0836 18.2995 11.0836H19.5328C20.0437 11.0836 20.4578 11.5089 20.4578 12.0336V13.3002C20.4578 13.8249 20.0437 14.2502 19.5328 14.2502H18.2995C17.7886 14.2502 17.3745 13.8249 17.3745 13.3002V12.0336Z" fill="black"/>
</svg>
