<svg width="26" height="36" viewBox="0 0 26 36" fill="none" xmlns="http://www.w3.org/2000/svg">
<path d="M13.1832 0.94397C15.0395 0.94397 16.5443 2.47552 16.5443 4.36479L16.5295 4.64269C18.01 5.24297 19.4397 6.24023 20.7096 7.5584C22.1792 9.08372 23.0396 11.1028 23.3042 13.693V23.0366L25.3349 26.6148C26.0163 27.7504 26.2349 28.7026 25.7029 29.5259C25.216 30.2793 24.3447 30.5405 23.1603 30.5211L18.6067 30.522C18.0774 33.1109 15.8231 35.0559 13.1224 35.0559C10.4217 35.0559 8.16739 33.1109 7.63808 30.522L2.59517 30.5211L2.50087 30.5171C1.43151 30.4252 0.634716 29.9077 0.455607 28.9125C0.334163 28.2377 0.493623 27.5098 0.913135 26.6432L3.00211 22.9242L3.00648 13.5907C3.18895 11.5276 3.96095 9.6042 5.30555 7.84084C6.44339 6.34863 8.06866 5.2509 9.83226 4.61785C9.82516 4.53447 9.82209 4.44979 9.82209 4.36479C9.82209 2.47552 11.3269 0.94397 13.1832 0.94397ZM16.2824 30.5228H9.96238C10.4315 31.8368 11.6692 32.7754 13.1224 32.7754C14.5756 32.7754 15.8133 31.8368 16.2824 30.5228ZM13.3471 6.27221C11.0387 6.27221 8.49851 7.37317 7.07576 9.23903C5.98817 10.6653 5.38129 12.1773 5.24272 13.693V23.2274C5.24272 23.4259 5.1918 23.621 5.09499 23.7933L2.89199 27.7106C2.78823 27.9263 2.723 28.104 2.68797 28.2406L23.1782 28.2407C23.3856 28.2441 23.5416 28.2361 23.6498 28.2311C23.5942 28.1073 23.5148 27.957 23.4086 27.7795L21.2137 23.9127C21.1153 23.7393 21.0635 23.5425 21.0635 23.3423L21.0698 13.8136C20.8625 11.8323 20.2069 10.2939 19.1097 9.15507C17.3343 7.31228 15.2506 6.27221 13.3471 6.27221ZM13.1832 3.22452C12.6638 3.22452 12.2269 3.58427 12.1 4.07232C12.5186 4.01851 12.9351 3.99166 13.3471 3.99166C13.6506 3.99166 13.9552 4.01018 14.26 4.04657C14.1254 3.57276 13.6943 3.22452 13.1832 3.22452Z" fill="#555555"/>
</svg>
