<svg width="77" height="77" viewBox="0 0 77 77" fill="none" xmlns="http://www.w3.org/2000/svg">
<path d="M38.5001 0C59.5445 0 76.6044 17.0599 76.6044 38.1043C76.6044 59.1488 59.5445 76.2087 38.5001 76.2087C17.4556 76.2087 0.395752 59.1488 0.395752 38.1043C0.395752 17.0599 17.4556 0 38.5001 0ZM38.5001 5.31688C20.3921 5.31688 5.71264 19.9963 5.71264 38.1043C5.71264 56.2123 20.3921 70.8918 38.5001 70.8918C56.6081 70.8918 71.2875 56.2123 71.2875 38.1043C71.2875 19.9963 56.6081 5.31688 38.5001 5.31688ZM38.5001 20.8604C39.9349 20.8604 41.0981 22.0236 41.0981 23.4585L41.095 35.357L52.9989 35.3593C54.4338 35.3593 55.5969 36.5224 55.5969 37.9573C55.5969 39.3921 54.4338 40.5553 52.9989 40.5553L41.095 40.5544L41.0981 52.4561C41.0981 53.891 39.9349 55.0541 38.5001 55.0541C37.0652 55.0541 35.9021 53.891 35.9021 52.4561L35.9014 40.5544L24.0013 40.5553C22.5664 40.5553 21.4032 39.3921 21.4032 37.9573C21.4032 36.5224 22.5664 35.3593 24.0013 35.3593L35.9014 35.357L35.9021 23.4585C35.9021 22.0236 37.0652 20.8604 38.5001 20.8604Z" fill="#555555"/>
</svg>
