<svg width="25" height="25" viewBox="0 0 25 25" fill="none" xmlns="http://www.w3.org/2000/svg">
<g filter="url(#filter0_d_382_2365)">
<path d="M10.0546 7.76404L10.0546 7.76402C10.3443 7.47436 10.3443 7.00472 10.0546 6.71505C9.76494 6.42539 9.2953 6.42539 9.00563 6.71505L5.94182 9.77887L5.94169 9.77874L5.93662 9.78434C5.20461 10.594 4.8332 11.4598 4.85058 12.3831C4.87129 13.4828 5.19779 14.1867 5.83703 14.9124C6.43742 15.5939 7.27021 16.0484 8.34274 16.1385C9.20514 16.211 10.0531 15.939 10.8675 15.3614L10.8678 15.3618L10.8774 15.3537L10.9535 15.2894L10.9539 15.2898L10.9628 15.2809L14.2671 11.9766C14.5568 11.6869 14.5568 11.2173 14.2671 10.9276C13.9775 10.6379 13.5078 10.6379 13.2182 10.9276L9.95997 14.1858C9.42351 14.5546 8.93179 14.6993 8.46692 14.6603C7.79094 14.6035 7.30573 14.3354 6.95016 13.9317C6.73317 13.6854 6.58478 13.469 6.48754 13.2292C6.39044 12.9897 6.34061 12.7174 6.33378 12.3552C6.32423 11.8477 6.53317 11.3371 7.01431 10.8032L10.0546 7.76404ZM19.3537 6.87744L19.3541 6.87779L19.3614 6.86746C19.939 6.05312 20.211 5.20514 20.1385 4.34274C20.0484 3.27021 19.5939 2.43742 18.9124 1.83703C18.1867 1.19779 17.4828 0.871287 16.3831 0.850582C15.4598 0.833199 14.594 1.20461 13.7843 1.93662L13.7842 1.93648L13.7789 1.94182L10.7151 5.00563C10.4254 5.2953 10.4254 5.76494 10.7151 6.0546C11.0047 6.34427 11.4744 6.34427 11.764 6.0546L11.764 6.05458L14.8032 3.01431C15.3371 2.53317 15.8477 2.32423 16.3552 2.33378C16.7174 2.34061 16.9897 2.39044 17.2292 2.48754C17.469 2.58478 17.6854 2.73317 17.9317 2.95016C18.3354 3.30573 18.6035 3.79094 18.6603 4.46692C18.6993 4.93179 18.5546 5.42351 18.1858 5.95997L14.9276 9.21817C14.6379 9.50783 14.6379 9.97747 14.9276 10.2671C15.2173 10.5568 15.6869 10.5568 15.9766 10.2671L19.2809 6.96281L19.2813 6.96318L19.2894 6.95351L19.3537 6.87744ZM14.0696 7.71628C14.3592 7.42662 14.3592 6.95698 14.0696 6.66731C13.7799 6.37765 13.3103 6.37765 13.0206 6.66731L10.827 8.86087C10.5374 9.15053 10.5374 9.62017 10.827 9.90984C11.1167 10.1995 11.5863 10.1995 11.876 9.90984L14.0696 7.71628Z" fill="#EAEAEA" stroke="#EAEAEA" stroke-width="0.3"/>
</g>
<defs>
<filter id="filter0_d_382_2365" x="0.699951" y="0.700012" width="23.6001" height="23.6" filterUnits="userSpaceOnUse" color-interpolation-filters="sRGB">
<feFlood flood-opacity="0" result="BackgroundImageFix"/>
<feColorMatrix in="SourceAlpha" type="matrix" values="0 0 0 0 0 0 0 0 0 0 0 0 0 0 0 0 0 0 127 0" result="hardAlpha"/>
<feOffset dy="4"/>
<feGaussianBlur stdDeviation="2"/>
<feComposite in2="hardAlpha" operator="out"/>
<feColorMatrix type="matrix" values="0 0 0 0 0 0 0 0 0 0 0 0 0 0 0 0 0 0 0.25 0"/>
<feBlend mode="normal" in2="BackgroundImageFix" result="effect1_dropShadow_382_2365"/>
<feBlend mode="normal" in="SourceGraphic" in2="effect1_dropShadow_382_2365" result="shape"/>
</filter>
</defs>
</svg>
