<svg width="16" height="16" viewBox="0 0 16 16" fill="none" xmlns="http://www.w3.org/2000/svg">
<path fill-rule="evenodd" clip-rule="evenodd" d="M1.97246 0C0.884597 0 0 0.884597 0 1.97246V13.4263C0 14.8458 1.15425 16 2.57375 16H14.0275C15.1154 16 16 15.1154 16 14.0275V11.8931C16 10.8051 15.1154 9.92063 14.0275 9.92063H13.1161L14.2464 9.26803C15.1882 8.72403 15.5119 7.51572 14.9682 6.57368L13.9009 4.72497C13.4045 3.8657 12.3557 3.52075 11.4604 3.87964C11.819 2.9843 11.4741 1.93535 10.615 1.43904L8.76625 0.371772C7.82247 -0.172765 6.6169 0.149734 6.07201 1.09393L5.95816 1.29113C5.68028 0.538141 4.95551 0 4.10691 0H1.97246ZM1.54 1.97246C1.54 1.73435 1.73435 1.54 1.97246 1.54H4.10691C4.34511 1.54 4.53938 1.73432 4.53938 1.97246V14.46H2.57375C2.004 14.46 1.54 13.996 1.54 13.4263V1.97246ZM6.07938 4.16113L7.40571 1.86389C7.52522 1.65696 7.78941 1.58609 7.99662 1.70563L9.8449 2.77268C10.0512 2.89184 10.1223 3.15746 10.0033 3.36359L6.07938 10.16V4.16113ZM11.9767 5.33676C12.1827 5.21781 12.448 5.28877 12.5673 5.49516L13.6345 7.34356C13.7536 7.54979 13.6824 7.81535 13.4762 7.93441L6.9757 11.6875L9.97508 6.49238L11.9767 5.33676ZM6.07938 13.9832L10.4488 11.4606H14.0275C14.2657 11.4606 14.46 11.6549 14.46 11.8931V14.0275C14.46 14.2657 14.2657 14.46 14.0275 14.46H6.07938V13.9832ZM3.04917 12.1802C2.62388 12.1802 2.27917 12.5249 2.27917 12.9502C2.27917 13.3755 2.62388 13.7202 3.04917 13.7202C3.47445 13.7202 3.81917 13.3755 3.81917 12.9502C3.81917 12.5249 3.47445 12.1802 3.04917 12.1802Z" fill="#595959"/>
</svg>
