<svg width="14" height="11" viewBox="0 0 14 11" fill="none" xmlns="http://www.w3.org/2000/svg">
<path d="M13.3401 0C13.6712 0 13.9396 0.262452 13.9396 0.586204V9.96547C13.9396 10.2892 13.6712 10.5517 13.3401 10.5517H1.34953C1.01842 10.5517 0.75 10.2892 0.75 9.96547V0.586204C0.75 0.262452 1.01842 0 1.34953 0H13.3401ZM4.32107 4.23155L1.64378 6.89771V9.67854H13.0425V8.73363L10.9321 6.67587L9.10079 8.21455C8.99175 8.29139 8.88614 8.32535 8.78396 8.31645C8.68178 8.30755 8.58554 8.2661 8.49526 8.19211L4.32107 4.23155ZM13.0392 0.877866H1.64851V5.64574L4.02658 3.27752C4.11737 3.2092 4.2139 3.17503 4.31619 3.17503C4.41847 3.17503 4.50862 3.20571 4.58664 3.26706L8.82807 7.28224L10.6781 5.73162C10.766 5.66761 10.8585 5.6356 10.9557 5.6356C11.0528 5.6356 11.1445 5.66761 11.2309 5.73162L13.0392 7.48874V0.877866ZM10.822 2.12918C11.3186 2.12918 11.7213 2.52286 11.7213 3.00849C11.7213 3.49412 11.3186 3.8878 10.822 3.8878C10.3253 3.8878 9.92268 3.49412 9.92268 3.00849C9.92268 2.52286 10.3253 2.12918 10.822 2.12918Z" fill="#555555"/>
</svg>
