<svg width="20" height="21" viewBox="0 0 20 21" fill="none" xmlns="http://www.w3.org/2000/svg">
<path d="M10 0.245605C10.4232 0.245605 10.7663 0.595979 10.7663 1.02819L10.766 9.67505L19.2337 9.67579C19.6569 9.67579 20 10.0262 20 10.4584C20 10.8906 19.6569 11.241 19.2337 11.241L10.766 11.2407L10.7663 19.8886C10.7663 20.3208 10.4232 20.6711 10 20.6711C9.5768 20.6711 9.23372 20.3208 9.23372 19.8886L9.233 11.2407L0.766277 11.241C0.343074 11.241 0 10.8906 0 10.4584C0 10.0262 0.343074 9.67579 0.766277 9.67579L9.233 9.67505L9.23372 1.02819C9.23372 0.595979 9.5768 0.245605 10 0.245605Z" fill="#FCFCFC"/>
</svg>
