<svg width="24" height="24" viewBox="0 0 24 24" fill="none" xmlns="http://www.w3.org/2000/svg">
<path d="M13.0929 1.84291C13.0929 1.23931 12.6036 0.75 12 0.75C11.3964 0.75 10.9071 1.2393 10.9071 1.84288C10.9071 1.84289 10.9071 1.8429 10.9071 1.8429L10.9063 10.9063L1.8429 10.9071C1.8429 10.9071 1.84289 10.9071 1.84288 10.9071C1.2393 10.9071 0.75 11.3964 0.75 12C0.75 12.6036 1.23931 13.0929 1.8429 13.0929L10.9063 13.0926L10.9071 22.1571C10.9071 22.7607 11.3964 23.25 12 23.25C12.6036 23.25 13.0929 22.7607 13.0929 22.1571L13.0926 13.0926L22.1571 13.0929C22.7607 13.0929 23.25 12.6036 23.25 12C23.25 11.3964 22.7607 10.9071 22.1571 10.9071L13.0926 10.9063L13.0929 1.84291Z" fill="#595959" stroke="#595959" stroke-width="0.5"/>
</svg>
