<svg width="15" height="14" viewBox="0 0 15 14" fill="none" xmlns="http://www.w3.org/2000/svg">
<path d="M14.2311 8.4C14.503 8.39812 14.7244 8.6208 14.7244 8.89615V11.1393C14.7244 11.4133 14.505 11.6354 14.2345 11.6354C13.9639 11.6354 13.7446 11.4133 13.7446 11.1393L13.7448 10.3516C12.4692 12.4909 10.1031 14 7.55328 14C4.46705 14 1.8794 12.0953 0.757516 9.15935C0.659867 8.90381 0.78526 8.61648 1.03759 8.51758C1.28992 8.41869 1.57363 8.54568 1.67128 8.80123C2.65084 11.3647 4.88295 13.0077 7.55328 13.0077C9.9133 13.0077 12.1178 11.4807 13.1445 9.40048L12.1144 9.40702C11.8439 9.4089 11.623 9.18829 11.6212 8.91429C11.6193 8.64028 11.8371 8.41663 12.1077 8.41475L14.2311 8.4ZM7.89545 0C10.9817 0 13.5693 1.90468 14.6912 4.84065C14.7889 5.09619 14.6635 5.38352 14.4111 5.48242C14.1588 5.58131 13.8751 5.45432 13.7775 5.19877C12.7979 2.63528 10.5658 0.992294 7.89545 0.992294C5.53543 0.992294 3.33091 2.51929 2.30421 4.59952L3.33431 4.59298C3.60487 4.5911 3.8257 4.8117 3.82757 5.08571C3.82941 5.35972 3.61158 5.58337 3.34102 5.58525L1.21762 5.6C0.945753 5.60188 0.724365 5.3792 0.724365 5.10385V2.86075C0.724365 2.58673 0.943701 2.3646 1.21427 2.3646C1.48483 2.3646 1.70417 2.58673 1.70417 2.86075L1.7039 3.64839C2.97954 1.50908 5.34568 0 7.89545 0Z" fill="#555555"/>
</svg>
