<svg width="24" height="24" viewBox="0 0 24 24" fill="none" xmlns="http://www.w3.org/2000/svg">
<g filter="url(#filter0_d_382_2381)">
<path d="M11.1377 0C10.9021 0 10.6921 0.146444 10.6129 0.365781L10.0484 1.93094C9.84563 1.98119 9.67145 2.03222 9.5247 2.08472C9.36394 2.14222 9.15687 2.22991 8.90037 2.34867L7.58532 1.65276C7.3648 1.53606 7.09265 1.57899 6.9198 1.75774L5.76333 2.95365C5.60984 3.11238 5.56637 3.34609 5.65272 3.54843L6.26985 4.99464C6.16705 5.18233 6.08499 5.34278 6.02323 5.47722C5.95583 5.62394 5.87307 5.82588 5.77377 6.08531L4.33588 6.70092C4.12038 6.79318 3.98654 7.00915 4.00125 7.24089L4.10663 8.90089C4.12055 9.12029 4.26509 9.31049 4.47434 9.38479L5.83618 9.86831C5.87512 10.0564 5.91583 10.2178 5.95895 10.3539C6.00947 10.5133 6.08888 10.7183 6.19799 10.9723L5.51337 12.4854C5.41479 12.7033 5.46933 12.9591 5.64847 13.1191L6.94904 14.2806C7.12354 14.4365 7.37823 14.4672 7.58551 14.3574L8.92636 13.6472C9.16191 13.7699 9.37745 13.8678 9.57413 13.9409C9.7499 14.0063 9.94529 14.0793 10.1603 14.1598L10.6801 15.6001C10.7577 15.815 10.9614 15.9604 11.1922 15.9656L12.7126 15.9998C12.9497 16.005 13.1641 15.8614 13.2471 15.6419L13.86 14.0204C14.1415 13.922 14.3472 13.8455 14.4809 13.7892C14.6076 13.7358 14.7717 13.6577 14.9756 13.554L16.4945 14.2038C16.6994 14.2915 16.9375 14.2497 17.0994 14.0977L18.2232 13.0425C18.3953 12.8809 18.4449 12.6292 18.3469 12.4155L17.6934 10.9915C17.7919 10.7983 17.8724 10.627 17.9351 10.4767C18.0012 10.3184 18.0811 10.1028 18.1759 9.82782L19.6066 9.39288C19.8476 9.31961 20.0088 9.09545 19.9996 8.84633L19.943 7.30956C19.9355 7.10596 19.8149 6.92308 19.6296 6.83411L18.1272 6.11296C18.0579 5.85778 17.9969 5.6593 17.9427 5.51414C17.889 5.37039 17.8057 5.18187 17.6917 4.9451L18.344 3.56794C18.4455 3.35371 18.3973 3.09934 18.2243 2.93596L17.1005 1.8748C16.9405 1.72375 16.7053 1.68059 16.5012 1.76483L14.9824 2.3916C14.8142 2.28073 14.6621 2.18925 14.5251 2.11687C14.3606 2.02996 14.142 1.93853 13.8654 1.8398L13.3377 0.366919C13.259 0.146993 13.0486 0 12.8126 0L11.1377 0ZM11.9811 5.61478C13.3143 5.61478 14.3951 6.68342 14.3951 8.00166C14.3951 9.31989 13.3143 10.3885 11.9811 10.3885C10.6479 10.3885 9.56708 9.31989 9.56708 8.00166C9.56708 6.68342 10.6479 5.61478 11.9811 5.61478Z" fill="#EAEAEA"/>
</g>
<defs>
<filter id="filter0_d_382_2381" x="0.000244141" y="0" width="23.9998" height="24" filterUnits="userSpaceOnUse" color-interpolation-filters="sRGB">
<feFlood flood-opacity="0" result="BackgroundImageFix"/>
<feColorMatrix in="SourceAlpha" type="matrix" values="0 0 0 0 0 0 0 0 0 0 0 0 0 0 0 0 0 0 127 0" result="hardAlpha"/>
<feOffset dy="4"/>
<feGaussianBlur stdDeviation="2"/>
<feComposite in2="hardAlpha" operator="out"/>
<feColorMatrix type="matrix" values="0 0 0 0 0 0 0 0 0 0 0 0 0 0 0 0 0 0 0.25 0"/>
<feBlend mode="normal" in2="BackgroundImageFix" result="effect1_dropShadow_382_2381"/>
<feBlend mode="normal" in="SourceGraphic" in2="effect1_dropShadow_382_2381" result="shape"/>
</filter>
</defs>
</svg>
