<svg width="17" height="20" viewBox="0 0 27 23" fill="none" xmlns="http://www.w3.org/2000/svg">
<path d="M12.137 0C11.742 0 11.3897 0.210513 11.257 0.525811L10.3101 2.77574C9.97012 2.84796 9.678 2.92133 9.43188 2.99679C9.16227 3.07944 8.81499 3.2055 8.38481 3.37621L6.17936 2.37584C5.80952 2.20809 5.35309 2.2698 5.06321 2.52675L3.1237 4.24588C2.86628 4.47405 2.79338 4.81001 2.93818 5.10087L3.97317 7.17981C3.80077 7.44961 3.66314 7.68026 3.55958 7.87351C3.44654 8.08442 3.30774 8.37471 3.1412 8.74765L0.729721 9.63259C0.368309 9.76521 0.143843 10.0757 0.168512 10.4088L0.345234 12.795C0.368591 13.1104 0.610992 13.3839 0.961931 13.4907L3.24587 14.1857C3.31117 14.456 3.37945 14.6881 3.45177 14.8837C3.53649 15.1129 3.66967 15.4076 3.85267 15.7728L2.70448 17.9478C2.53915 18.2609 2.63063 18.6287 2.93106 18.8587L5.11224 20.5284C5.4049 20.7524 5.83203 20.7966 6.17966 20.6388L8.42841 19.6178C8.82345 19.7942 9.18493 19.9349 9.51478 20.0401C9.80957 20.134 10.1373 20.239 10.4978 20.3548L11.3696 22.4251C11.4998 22.7341 11.8413 22.9431 12.2284 22.9506L14.7784 22.9998C15.1759 23.0072 15.5356 22.8008 15.6747 22.4852L16.7026 20.1544C17.1747 20.0129 17.5196 19.9029 17.7439 19.8219C17.9564 19.7452 18.2316 19.6329 18.5735 19.4839L21.1209 20.418C21.4646 20.544 21.8638 20.484 22.1353 20.2655L24.0201 18.7486C24.3087 18.5163 24.392 18.1545 24.2275 17.8473L23.1317 15.8003C23.2968 15.5226 23.4317 15.2763 23.5369 15.0603C23.6477 14.8327 23.7818 14.5228 23.9409 14.1275L26.3403 13.5023C26.7445 13.397 27.0148 13.0747 26.9994 12.7166L26.9044 10.5075C26.8918 10.2148 26.6896 9.95194 26.3788 9.82404L23.8592 8.78739C23.743 8.42056 23.6406 8.13525 23.5497 7.92659C23.4596 7.71995 23.3199 7.44895 23.1287 7.10859L24.2228 5.12892C24.393 4.82097 24.3121 4.4553 24.022 4.22045L22.1372 2.69503C21.8689 2.47789 21.4745 2.41585 21.1321 2.53695L18.5849 3.43793C18.3028 3.27855 18.0478 3.14704 17.818 3.043C17.5421 2.91807 17.1755 2.78664 16.7116 2.64471L15.8267 0.527446C15.6946 0.211303 15.3418 0 14.9461 0L12.137 0ZM13.5515 8.07126C15.7875 8.07126 17.6001 9.60743 17.6001 11.5024C17.6001 13.3974 15.7875 14.9335 13.5515 14.9335C11.3156 14.9335 9.50296 13.3974 9.50296 11.5024C9.50296 9.60743 11.3156 8.07126 13.5515 8.07126Z" fill="black"/>
</svg>
