<svg width="14" height="16" viewBox="0 0 14 16" fill="none" xmlns="http://www.w3.org/2000/svg">
<path d="M5.8448 0L8.30334 0.00312058C8.8016 0.0631178 9.2381 0.297712 9.59834 0.693518C9.89178 1.01594 10.0461 1.39113 10.0555 1.80005L13.561 1.80017C13.8034 1.80017 14 1.99853 14 2.24323C14 2.48793 13.8034 2.6863 13.561 2.6863L12.3852 2.68596L11.7696 12.5197C11.7696 14.1479 10.5832 15.1945 9.24338 15.1945H4.66398C3.32469 15.1945 2.41 14.1532 2.41 12.5197L1.53218 2.68596L0.43903 2.6863C0.19656 2.6863 0 2.48793 0 2.24323C0 1.99853 0.19656 1.80017 0.43903 1.80017L3.94142 1.8C3.95081 1.47119 4.07252 1.13788 4.29614 0.808155C4.62928 0.316921 5.14914 0.0472828 5.8448 0ZM11.5068 2.68596H2.41L3.28806 12.5197C3.28806 13.7285 3.93782 14.3084 4.66398 14.3084H9.24338C9.97292 14.3084 10.8915 13.7229 10.8915 12.5197L11.5068 2.68596ZM5.49407 5.25391C5.73654 5.25391 5.9331 5.45227 5.9331 5.69697V10.8512C5.9331 11.0959 5.73654 11.2942 5.49407 11.2942C5.2516 11.2942 5.05504 11.0959 5.05504 10.8512V5.69697C5.05504 5.45227 5.2516 5.25391 5.49407 5.25391ZM8.43476 5.25391C8.67723 5.25391 8.87379 5.45227 8.87379 5.69697V10.8512C8.87379 11.0959 8.67723 11.2942 8.43476 11.2942C8.19229 11.2942 7.99573 11.0959 7.99573 10.8512V5.69697C7.99573 5.45227 8.19229 5.25391 8.43476 5.25391ZM5.87495 0.885082C5.46434 0.91361 5.19329 1.05419 5.02074 1.30863C4.89411 1.49535 4.8308 1.65668 4.82076 1.80042L9.17704 1.79973C9.16785 1.61324 9.09436 1.44974 8.95166 1.29295C8.73008 1.04949 8.48413 0.917304 8.25132 0.886128L5.87495 0.885082Z" fill="#555555"/>
</svg>
