<svg width="13" height="16" viewBox="0 0 13 16" fill="none" xmlns="http://www.w3.org/2000/svg">
<path fill-rule="evenodd" clip-rule="evenodd" d="M7.17148 0.21967C6.88656 -0.0732233 6.42461 -0.0732233 6.13969 0.21967C5.85476 0.512563 5.85476 0.987437 6.13969 1.28033L7.4418 2.61887C7.34483 2.61929 7.24958 2.62031 7.16148 2.62153C6.97851 2.62406 6.80785 2.62785 6.68311 2.631C6.62066 2.63258 6.56953 2.634 6.53389 2.63503L6.49253 2.63625L6.4887 2.63637C2.90404 2.64264 0 5.63179 0 9.31818C0 13.0084 2.91015 16 6.5 16C10.0899 16 13 13.0084 13 9.31818C13 8.90397 12.6734 8.56818 12.2704 8.56818C11.8675 8.56818 11.5408 8.90397 11.5408 9.31818C11.5408 12.18 9.28397 14.5 6.5 14.5C3.71603 14.5 1.45918 12.18 1.45918 9.31818C1.45918 6.45634 3.71603 4.13636 6.5 4.13636C6.50752 4.13636 6.51503 4.13624 6.52255 4.136L6.52256 4.136L6.52267 4.136L6.52324 4.13598L6.52569 4.1359L6.53571 4.1356L6.57492 4.13444C6.60905 4.13345 6.65843 4.13208 6.71894 4.13055C6.8401 4.12749 7.00509 4.12383 7.18111 4.1214C7.40234 4.11833 7.61801 4.11771 7.78521 4.12069L6.13969 5.81224C5.85476 6.10514 5.85476 6.58001 6.13969 6.8729C6.42461 7.1658 6.88656 7.1658 7.17148 6.8729L9.89168 4.07662C10.1766 3.78372 10.1766 3.30885 9.89168 3.01596L7.17148 0.21967Z" fill="#3F434A"/>
</svg>
