<svg width="115" height="31" viewBox="0 0 115 31" fill="none" xmlns="http://www.w3.org/2000/svg">
<path d="M11.92 30.24C9.68 30.24 7.66667 29.8267 5.88 29C4.09333 28.1733 2.66667 26.96 1.6 25.36C0.56 23.7333 0.0400001 21.7733 0.0400001 19.48C0.0400001 17.88 0.32 16.1467 0.88 14.28C2.10667 10.28 3.96 7.4 6.44 5.64C8.92 3.85333 11.5733 2.96 14.4 2.96C15.92 2.96 17.2667 3.18666 18.44 3.64C19.6133 4.09333 20.6933 4.74667 21.68 5.6L22.76 4.76C23.48 4.2 24.08 3.81333 24.56 3.6C25.0667 3.38667 25.6267 3.28 26.24 3.28C26.9067 3.28 27.44 3.42667 27.84 3.72C28.24 4.01333 28.44 4.44 28.44 5C28.44 5.29333 28.3867 5.58667 28.28 5.88L26.04 12.12C25.8 12.84 25.5067 13.3467 25.16 13.64C24.84 13.9333 24.3467 14.08 23.68 14.08C22.9867 14.08 22.4133 13.84 21.96 13.36C21.5333 12.8533 21.04 12 20.48 10.8C19.84 9.54667 19.32 8.72 18.92 8.32C18.52 7.92 17.9333 7.72 17.16 7.72C16.0667 7.72 15.0133 8.4 14 9.76C12.9867 11.0933 12.0667 13.1067 11.24 15.8C10.5467 18.0667 10.2 19.96 10.2 21.48C10.2 22.8133 10.4533 23.8133 10.96 24.48C11.4667 25.12 12.1467 25.44 13 25.44C14.2533 25.44 15.28 25.16 16.08 24.6C16.9067 24.04 17.7467 23.28 18.6 22.32C19.1333 21.7333 19.56 21.3067 19.88 21.04C20.2267 20.7467 20.5867 20.6 20.96 20.6C21.44 20.6 21.9467 20.84 22.48 21.32C23.0133 21.8 23.2667 22.28 23.24 22.76C23.2667 23.3467 22.7867 24.2533 21.8 25.48C20.84 26.7067 19.4933 27.8133 17.76 28.8C16.0533 29.76 14.1067 30.24 11.92 30.24ZM39.9753 8.84C43.042 8.84 45.4953 9.41333 47.3353 10.56C49.1753 11.68 50.0953 13.4 50.0953 15.72C50.0953 16.6 49.9353 17.6 49.6153 18.72L47.9753 24.24C47.9486 24.3467 47.9353 24.48 47.9353 24.64C47.9353 25.0667 48.1086 25.28 48.4553 25.28C48.7753 25.28 49.042 25.1467 49.2553 24.88C49.4953 24.5867 49.6553 24.44 49.7353 24.44C49.8686 24.44 49.9753 24.5333 50.0553 24.72C50.162 24.9067 50.2153 25.12 50.2153 25.36C50.242 26.08 49.962 26.8133 49.3753 27.56C48.8153 28.3067 48.0553 28.92 47.0953 29.4C46.1353 29.88 45.082 30.12 43.9353 30.12C42.5486 30.12 41.362 29.8667 40.3753 29.36C39.3886 28.8533 38.7086 28.1067 38.3353 27.12C37.5353 28.08 36.5886 28.8267 35.4953 29.36C34.402 29.8667 33.2286 30.12 31.9753 30.12C30.562 30.12 29.3753 29.8533 28.4153 29.32C27.4553 28.76 26.7353 28.0533 26.2553 27.2C25.802 26.32 25.5753 25.4 25.5753 24.44C25.5753 24.0133 25.6153 23.6 25.6953 23.2C26.122 21.36 27.042 19.9733 28.4553 19.04C29.8953 18.1067 31.602 17.64 33.5753 17.64C35.7886 17.64 37.962 17.9867 40.0953 18.68L41.0953 16.04C41.442 14.92 41.6153 14.0533 41.6153 13.44C41.5886 12.8 41.3753 12.32 40.9753 12C40.5753 11.68 39.962 11.52 39.1353 11.52C39.2953 11.9467 39.3753 12.3867 39.3753 12.84C39.3753 13.8267 39.002 14.68 38.2553 15.4C37.5086 16.12 36.442 16.48 35.0553 16.48C33.7486 16.48 32.722 16.2 31.9753 15.64C31.2553 15.0533 30.8953 14.3333 30.8953 13.48C30.8953 12.1467 31.642 11.04 33.1353 10.16C34.6286 9.28 36.9086 8.84 39.9753 8.84ZM37.7353 20.96C36.9886 20.96 36.3753 21.2533 35.8953 21.84C35.442 22.4 35.2153 23.0133 35.2153 23.68C35.2153 24.1067 35.3086 24.4533 35.4953 24.72C35.7086 24.9867 36.002 25.12 36.3753 25.12C36.722 25.12 37.0953 24.9867 37.4953 24.72C37.922 24.4267 38.2286 24 38.4153 23.44L39.2553 21.08C38.802 21 38.2953 20.96 37.7353 20.96ZM64.6272 0.439999C66.1739 0.439999 67.3072 0.733333 68.0272 1.32C68.7739 1.90667 69.1472 2.70667 69.1472 3.72C69.1472 4.30667 69.0539 4.88 68.8672 5.44L62.5872 25.84C62.5072 26.16 62.4672 26.44 62.4672 26.68C62.4672 27.0267 62.5339 27.3067 62.6672 27.52C62.8005 27.7067 62.9872 27.8933 63.2272 28.08C63.4139 28.2667 63.5472 28.4267 63.6272 28.56C63.7072 28.6667 63.7205 28.8133 63.6672 29C63.5339 29.3467 63.2672 29.6 62.8672 29.76C62.4672 29.92 61.8539 30 61.0272 30H51.9072C51.2139 30 50.7072 29.8933 50.3872 29.68C50.0672 29.44 49.9605 29.1333 50.0672 28.76C50.1739 28.44 50.4539 28.16 50.9072 27.92C51.3072 27.7067 51.6405 27.4533 51.9072 27.16C52.1739 26.8667 52.4005 26.4 52.5872 25.76L58.6672 5.8C58.7472 5.56 58.7872 5.36 58.7872 5.2C58.7872 4.90667 58.7072 4.66667 58.5472 4.48C58.4139 4.29333 58.2272 4.10667 57.9872 3.92C57.7205 3.70667 57.5205 3.52 57.3872 3.36C57.2805 3.2 57.2672 2.98666 57.3472 2.72C57.5072 2.10666 58.3472 1.57333 59.8672 1.12C61.3872 0.666665 62.9739 0.439999 64.6272 0.439999ZM77.0356 8.84C78.5823 8.84 79.7156 9.13333 80.4356 9.72C81.1556 10.3067 81.5156 11.1067 81.5156 12.12C81.5156 12.7333 81.4223 13.32 81.2356 13.88L77.5556 25.84C77.4756 26.16 77.4356 26.44 77.4356 26.68C77.4356 27.0267 77.5023 27.3067 77.6356 27.52C77.769 27.7067 77.9556 27.8933 78.1956 28.08C78.3823 28.2667 78.5156 28.4267 78.5956 28.56C78.6756 28.6667 78.689 28.8133 78.6356 29C78.5023 29.3467 78.2356 29.6 77.8356 29.76C77.4356 29.92 76.8223 30 75.9956 30H66.8756C66.1823 30 65.6756 29.8933 65.3556 29.68C65.0356 29.44 64.929 29.1333 65.0356 28.76C65.1423 28.44 65.4223 28.16 65.8756 27.92C66.2756 27.7067 66.609 27.4533 66.8756 27.16C67.1423 26.8667 67.369 26.4 67.5556 25.76L71.0356 14.2C71.1156 13.96 71.1556 13.76 71.1556 13.6C71.1556 13.3067 71.089 13.08 70.9556 12.92C70.8223 12.7333 70.6223 12.5467 70.3556 12.36C70.089 12.1467 69.9023 11.96 69.7956 11.8C69.689 11.64 69.6756 11.4267 69.7556 11.16C69.9156 10.5467 70.7556 10.0133 72.2756 9.56C73.7956 9.08 75.3823 8.84 77.0356 8.84ZM79.7156 -2.38419e-06C80.7556 -2.38419e-06 81.6223 0.346665 82.3156 1.04C83.009 1.70666 83.3556 2.53333 83.3556 3.52C83.3556 4.21333 83.169 4.89333 82.7956 5.56C82.449 6.22667 81.9423 6.77333 81.2756 7.2C80.6356 7.6 79.9156 7.8 79.1156 7.8C78.1023 7.8 77.249 7.46667 76.5556 6.8C75.889 6.10667 75.5423 5.25333 75.5156 4.24C75.5156 3.57333 75.689 2.92 76.0356 2.28C76.3823 1.61333 76.8756 1.06666 77.5156 0.639999C78.1556 0.213331 78.889 -2.38419e-06 79.7156 -2.38419e-06ZM99.0441 9.36C99.5507 9.36 99.9374 9.46667 100.204 9.68C100.497 9.89333 100.644 10.1867 100.644 10.56C100.644 10.6667 100.617 10.8533 100.564 11.12C100.217 12.2933 99.4174 12.88 98.1641 12.88H95.8441L92.8441 22.76C92.7107 23.16 92.6441 23.5733 92.6441 24C92.6441 24.48 92.7774 24.8133 93.0441 25C93.3107 25.1867 93.6841 25.28 94.1641 25.28C94.5907 25.28 95.1241 25.2267 95.7641 25.12C96.0841 25.04 96.3641 25 96.6041 25C96.7907 25 96.9241 25.0667 97.0041 25.2C97.1107 25.3067 97.1641 25.4533 97.1641 25.64C97.1907 26.1733 96.7907 26.8267 95.9641 27.6C95.1641 28.3467 94.0707 29 92.6841 29.56C91.2974 30.0933 89.7641 30.36 88.0841 30.36C86.2707 30.36 84.8174 29.9467 83.7241 29.12C82.6307 28.2933 82.0841 27.16 82.0841 25.72C82.0841 25.0533 82.1907 24.4133 82.4041 23.8L84.9641 15.88C85.0974 15.4267 85.1641 15.0667 85.1641 14.8C85.1641 14.2667 85.0307 13.8133 84.7641 13.44C84.5241 13.0667 84.1774 12.68 83.7241 12.28C83.3241 11.9067 83.0441 11.6 82.8841 11.36C82.7241 11.0933 82.6841 10.7867 82.7641 10.44C82.8707 10.0933 83.0974 9.82667 83.4441 9.64C83.7907 9.45333 84.3374 9.36 85.0841 9.36H87.3241L89.8441 6.84C90.7241 5.96 91.5241 5.34667 92.2441 5C92.9907 4.65333 93.9507 4.48 95.1241 4.48C96.8041 4.48 97.6441 5.12 97.6441 6.4C97.6441 6.8 97.5907 7.17333 97.4841 7.52L96.9241 9.36H99.0441ZM103.992 6.24C104.178 2.26667 106.192 0.279999 110.032 0.279999C111.498 0.279999 112.632 0.599999 113.432 1.24C114.258 1.88 114.672 2.77333 114.672 3.92C114.672 5.09333 114.258 6.42666 113.432 7.92L107.152 19.12C106.832 19.7333 106.498 20.1733 106.152 20.44C105.832 20.68 105.432 20.8 104.952 20.8C103.912 20.8 103.418 20.1733 103.472 18.92L103.992 6.24ZM103.872 21.92C104.938 21.92 105.832 22.28 106.552 23C107.298 23.72 107.672 24.6 107.672 25.64C107.672 26.36 107.472 27.0667 107.072 27.76C106.698 28.4533 106.165 29.0267 105.472 29.48C104.805 29.9067 104.045 30.12 103.192 30.12C102.152 30.12 101.272 29.76 100.552 29.04C99.8316 28.32 99.4582 27.44 99.4316 26.4C99.4316 25.68 99.6182 24.9733 99.9916 24.28C100.365 23.5867 100.885 23.0267 101.552 22.6C102.245 22.1467 103.018 21.92 103.872 21.92Z" fill="black"/>
</svg>
