<svg width="88" height="29" viewBox="0 0 88 29" fill="none" xmlns="http://www.w3.org/2000/svg">
<path d="M14.3992 24.82C15.9192 24.82 17.2459 24.6133 18.3792 24.2C19.5259 23.7733 20.3592 23.3533 20.8792 22.94L22.6792 26.54C22.0792 27.0733 21.0326 27.6133 19.5392 28.16C18.0459 28.7067 16.2592 28.98 14.1792 28.98C12.2326 28.98 10.4192 28.6333 8.73922 27.94C7.05922 27.2467 5.58589 26.2867 4.31922 25.06C3.05255 23.82 2.06589 22.3733 1.35922 20.72C0.652552 19.0667 0.299219 17.2733 0.299219 15.34C0.299219 13.4067 0.652552 11.6067 1.35922 9.94C2.06589 8.27333 3.04589 6.82 4.29922 5.58C5.56589 4.34 7.03922 3.37333 8.71922 2.68C10.4126 1.97333 12.2326 1.62 14.1792 1.62C16.2592 1.62 18.0459 1.89333 19.5392 2.44C21.0326 2.98666 22.0792 3.52667 22.6792 4.06L20.8792 7.66C20.3592 7.24667 19.5259 6.83333 18.3792 6.42C17.2459 5.99333 15.9192 5.78 14.3992 5.78C12.9592 5.78 11.6526 6.02 10.4792 6.5C9.30589 6.98 8.29922 7.65333 7.45922 8.52C6.61922 9.38667 5.97255 10.4 5.51922 11.56C5.06589 12.7067 4.83922 13.9467 4.83922 15.28C4.83922 16.6267 5.06589 17.88 5.51922 19.04C5.97255 20.2 6.61922 21.2133 7.45922 22.08C8.29922 22.9467 9.30589 23.62 10.4792 24.1C11.6526 24.58 12.9592 24.82 14.3992 24.82ZM39.6489 28.5V25.46C39.5422 25.78 39.2356 26.22 38.7289 26.78C38.2356 27.34 37.5556 27.8467 36.6889 28.3C35.8356 28.7533 34.8222 28.98 33.6489 28.98C32.1156 28.98 30.7356 28.6133 29.5089 27.88C28.2822 27.1467 27.3156 26.1267 26.6089 24.82C25.9022 23.5133 25.5489 22.0067 25.5489 20.3C25.5489 18.5933 25.9022 17.0867 26.6089 15.78C27.3156 14.4733 28.2822 13.4533 29.5089 12.72C30.7356 11.9733 32.1156 11.6 33.6489 11.6C34.7956 11.6 35.7889 11.8 36.6289 12.2C37.4689 12.6 38.1422 13.06 38.6489 13.58C39.1689 14.1 39.4889 14.5533 39.6089 14.94V12.08H43.8489V28.5H39.6489ZM29.7689 20.3C29.7689 21.3533 30.0022 22.2733 30.4689 23.06C30.9356 23.8467 31.5422 24.4533 32.2889 24.88C33.0489 25.3067 33.8622 25.52 34.7289 25.52C35.6622 25.52 36.4889 25.3 37.2089 24.86C37.9422 24.42 38.5156 23.8133 38.9289 23.04C39.3556 22.2533 39.5689 21.34 39.5689 20.3C39.5689 19.26 39.3556 18.3533 38.9289 17.58C38.5156 16.7933 37.9422 16.18 37.2089 15.74C36.4889 15.2867 35.6622 15.06 34.7289 15.06C33.8622 15.06 33.0489 15.28 32.2889 15.72C31.5422 16.1467 30.9356 16.7533 30.4689 17.54C30.0022 18.3267 29.7689 19.2467 29.7689 20.3ZM52.6095 28.5H48.3095V0.979999H52.6095V28.5ZM57.593 28.5V12.08H61.853V28.5H57.593ZM59.773 7.16C59.053 7.16 58.433 6.9 57.913 6.38C57.4063 5.86 57.153 5.24 57.153 4.52C57.153 3.8 57.4063 3.18 57.913 2.66C58.433 2.12667 59.053 1.86 59.773 1.86C60.253 1.86 60.693 1.98667 61.093 2.24C61.5063 2.48 61.833 2.8 62.073 3.2C62.3263 3.58667 62.453 4.02667 62.453 4.52C62.453 5.24 62.193 5.86 61.673 6.38C61.153 6.9 60.5196 7.16 59.773 7.16ZM65.4433 12.08H68.5233V5.34H72.7633V12.08H76.8233V15.68H72.7633V22.7C72.7633 23.58 72.9099 24.24 73.2033 24.68C73.5099 25.12 73.9433 25.34 74.5033 25.34C74.9699 25.34 75.3366 25.2533 75.6033 25.08C75.8833 24.9067 76.0499 24.7867 76.1033 24.72L77.6833 27.82C77.6033 27.9 77.3699 28.0333 76.9833 28.22C76.5966 28.4067 76.0966 28.58 75.4833 28.74C74.8699 28.9 74.1699 28.98 73.3833 28.98C71.9966 28.98 70.8366 28.5667 69.9033 27.74C68.9833 26.9133 68.5233 25.62 68.5233 23.86V15.68H65.4433V12.08ZM82.8761 20.78L81.9761 0.979999H86.6961L85.7761 20.78H82.8761ZM84.2961 28.98C83.7628 28.98 83.2694 28.8467 82.8161 28.58C82.3628 28.3133 82.0028 27.9533 81.7361 27.5C81.4694 27.0467 81.3361 26.5467 81.3361 26C81.3361 25.1733 81.6228 24.4667 82.1961 23.88C82.7828 23.2933 83.4828 23 84.2961 23C85.1361 23 85.8428 23.2933 86.4161 23.88C87.0028 24.4667 87.2961 25.1733 87.2961 26C87.2961 26.8267 87.0028 27.5333 86.4161 28.12C85.8428 28.6933 85.1361 28.98 84.2961 28.98Z" fill="#5A5959"/>
</svg>
