<svg width="101" height="31" viewBox="0 0 101 31" fill="none" xmlns="http://www.w3.org/2000/svg">
<path d="M12.2442 30.24C10.0042 30.24 7.99089 29.8267 6.20422 29C4.41755 28.1733 2.99089 26.96 1.92422 25.36C0.884219 23.7333 0.364219 21.7733 0.364219 19.48C0.364219 17.88 0.644219 16.1467 1.20422 14.28C2.43089 10.28 4.28422 7.4 6.76422 5.64C9.24422 3.85333 11.8976 2.96 14.7242 2.96C16.2442 2.96 17.5909 3.18666 18.7642 3.64C19.9376 4.09333 21.0176 4.74667 22.0042 5.6L23.0842 4.76C23.8042 4.2 24.4042 3.81333 24.8842 3.6C25.3909 3.38667 25.9509 3.28 26.5642 3.28C27.2309 3.28 27.7642 3.42667 28.1642 3.72C28.5642 4.01333 28.7642 4.44 28.7642 5C28.7642 5.29333 28.7109 5.58667 28.6042 5.88L26.3642 12.12C26.1242 12.84 25.8309 13.3467 25.4842 13.64C25.1642 13.9333 24.6709 14.08 24.0042 14.08C23.3109 14.08 22.7376 13.84 22.2842 13.36C21.8576 12.8533 21.3642 12 20.8042 10.8C20.1642 9.54667 19.6442 8.72 19.2442 8.32C18.8442 7.92 18.2576 7.72 17.4842 7.72C16.3909 7.72 15.3376 8.4 14.3242 9.76C13.3109 11.0933 12.3909 13.1067 11.5642 15.8C10.8709 18.0667 10.5242 19.96 10.5242 21.48C10.5242 22.8133 10.7776 23.8133 11.2842 24.48C11.7909 25.12 12.4709 25.44 13.3242 25.44C14.5776 25.44 15.6042 25.16 16.4042 24.6C17.2309 24.04 18.0709 23.28 18.9242 22.32C19.4576 21.7333 19.8842 21.3067 20.2042 21.04C20.5509 20.7467 20.9109 20.6 21.2842 20.6C21.7642 20.6 22.2709 20.84 22.8042 21.32C23.3376 21.8 23.5909 22.28 23.5642 22.76C23.5909 23.3467 23.1109 24.2533 22.1242 25.48C21.1642 26.7067 19.8176 27.8133 18.0842 28.8C16.3776 29.76 14.4309 30.24 12.2442 30.24ZM40.2995 8.84C43.3662 8.84 45.8195 9.41333 47.6595 10.56C49.4995 11.68 50.4195 13.4 50.4195 15.72C50.4195 16.6 50.2595 17.6 49.9395 18.72L48.2995 24.24C48.2729 24.3467 48.2595 24.48 48.2595 24.64C48.2595 25.0667 48.4329 25.28 48.7795 25.28C49.0995 25.28 49.3662 25.1467 49.5795 24.88C49.8195 24.5867 49.9795 24.44 50.0595 24.44C50.1929 24.44 50.2995 24.5333 50.3795 24.72C50.4862 24.9067 50.5395 25.12 50.5395 25.36C50.5662 26.08 50.2862 26.8133 49.6995 27.56C49.1395 28.3067 48.3795 28.92 47.4195 29.4C46.4595 29.88 45.4062 30.12 44.2595 30.12C42.8729 30.12 41.6862 29.8667 40.6995 29.36C39.7129 28.8533 39.0329 28.1067 38.6595 27.12C37.8595 28.08 36.9129 28.8267 35.8195 29.36C34.7262 29.8667 33.5529 30.12 32.2995 30.12C30.8862 30.12 29.6995 29.8533 28.7395 29.32C27.7795 28.76 27.0595 28.0533 26.5795 27.2C26.1262 26.32 25.8995 25.4 25.8995 24.44C25.8995 24.0133 25.9395 23.6 26.0195 23.2C26.4462 21.36 27.3662 19.9733 28.7795 19.04C30.2195 18.1067 31.9262 17.64 33.8995 17.64C36.1129 17.64 38.2862 17.9867 40.4195 18.68L41.4195 16.04C41.7662 14.92 41.9395 14.0533 41.9395 13.44C41.9129 12.8 41.6995 12.32 41.2995 12C40.8995 11.68 40.2862 11.52 39.4595 11.52C39.6195 11.9467 39.6995 12.3867 39.6995 12.84C39.6995 13.8267 39.3262 14.68 38.5795 15.4C37.8329 16.12 36.7662 16.48 35.3795 16.48C34.0729 16.48 33.0462 16.2 32.2995 15.64C31.5795 15.0533 31.2195 14.3333 31.2195 13.48C31.2195 12.1467 31.9662 11.04 33.4595 10.16C34.9529 9.28 37.2329 8.84 40.2995 8.84ZM38.0595 20.96C37.3129 20.96 36.6995 21.2533 36.2195 21.84C35.7662 22.4 35.5395 23.0133 35.5395 23.68C35.5395 24.1067 35.6329 24.4533 35.8195 24.72C36.0329 24.9867 36.3262 25.12 36.6995 25.12C37.0462 25.12 37.4195 24.9867 37.8195 24.72C38.2462 24.4267 38.5529 24 38.7395 23.44L39.5795 21.08C39.1262 21 38.6195 20.96 38.0595 20.96ZM64.9514 0.439999C66.4981 0.439999 67.6314 0.733333 68.3514 1.32C69.0981 1.90667 69.4714 2.70667 69.4714 3.72C69.4714 4.30667 69.3781 4.88 69.1914 5.44L62.9114 25.84C62.8314 26.16 62.7914 26.44 62.7914 26.68C62.7914 27.0267 62.8581 27.3067 62.9914 27.52C63.1247 27.7067 63.3114 27.8933 63.5514 28.08C63.7381 28.2667 63.8714 28.4267 63.9514 28.56C64.0314 28.6667 64.0447 28.8133 63.9914 29C63.8581 29.3467 63.5914 29.6 63.1914 29.76C62.7914 29.92 62.1781 30 61.3514 30H52.2314C51.5381 30 51.0314 29.8933 50.7114 29.68C50.3914 29.44 50.2847 29.1333 50.3914 28.76C50.4981 28.44 50.7781 28.16 51.2314 27.92C51.6314 27.7067 51.9647 27.4533 52.2314 27.16C52.4981 26.8667 52.7247 26.4 52.9114 25.76L58.9914 5.8C59.0714 5.56 59.1114 5.36 59.1114 5.2C59.1114 4.90667 59.0314 4.66667 58.8714 4.48C58.7381 4.29333 58.5514 4.10667 58.3114 3.92C58.0447 3.70667 57.8447 3.52 57.7114 3.36C57.6047 3.2 57.5914 2.98666 57.6714 2.72C57.8314 2.10666 58.6714 1.57333 60.1914 1.12C61.7114 0.666665 63.2981 0.439999 64.9514 0.439999ZM77.3598 8.84C78.9065 8.84 80.0398 9.13333 80.7598 9.72C81.4798 10.3067 81.8398 11.1067 81.8398 12.12C81.8398 12.7333 81.7465 13.32 81.5598 13.88L77.8798 25.84C77.7998 26.16 77.7598 26.44 77.7598 26.68C77.7598 27.0267 77.8265 27.3067 77.9598 27.52C78.0932 27.7067 78.2798 27.8933 78.5198 28.08C78.7065 28.2667 78.8398 28.4267 78.9198 28.56C78.9998 28.6667 79.0132 28.8133 78.9598 29C78.8265 29.3467 78.5598 29.6 78.1598 29.76C77.7598 29.92 77.1465 30 76.3198 30H67.1998C66.5065 30 65.9998 29.8933 65.6798 29.68C65.3598 29.44 65.2532 29.1333 65.3598 28.76C65.4665 28.44 65.7465 28.16 66.1998 27.92C66.5998 27.7067 66.9332 27.4533 67.1998 27.16C67.4665 26.8667 67.6932 26.4 67.8798 25.76L71.3598 14.2C71.4398 13.96 71.4798 13.76 71.4798 13.6C71.4798 13.3067 71.4132 13.08 71.2798 12.92C71.1465 12.7333 70.9465 12.5467 70.6798 12.36C70.4132 12.1467 70.2265 11.96 70.1198 11.8C70.0132 11.64 69.9998 11.4267 70.0798 11.16C70.2398 10.5467 71.0798 10.0133 72.5998 9.56C74.1198 9.08 75.7065 8.84 77.3598 8.84ZM80.0398 -2.38419e-06C81.0798 -2.38419e-06 81.9465 0.346665 82.6398 1.04C83.3332 1.70666 83.6798 2.53333 83.6798 3.52C83.6798 4.21333 83.4932 4.89333 83.1198 5.56C82.7732 6.22667 82.2665 6.77333 81.5998 7.2C80.9598 7.6 80.2398 7.8 79.4398 7.8C78.4265 7.8 77.5732 7.46667 76.8798 6.8C76.2132 6.10667 75.8665 5.25333 75.8398 4.24C75.8398 3.57333 76.0132 2.92 76.3598 2.28C76.7065 1.61333 77.1998 1.06666 77.8398 0.639999C78.4798 0.213331 79.2132 -2.38419e-06 80.0398 -2.38419e-06ZM99.3683 9.36C99.8749 9.36 100.262 9.46667 100.528 9.68C100.822 9.89333 100.968 10.1867 100.968 10.56C100.968 10.6667 100.942 10.8533 100.888 11.12C100.542 12.2933 99.7416 12.88 98.4883 12.88H96.1683L93.1683 22.76C93.0349 23.16 92.9683 23.5733 92.9683 24C92.9683 24.48 93.1016 24.8133 93.3683 25C93.6349 25.1867 94.0083 25.28 94.4883 25.28C94.9149 25.28 95.4483 25.2267 96.0883 25.12C96.4083 25.04 96.6883 25 96.9283 25C97.1149 25 97.2483 25.0667 97.3283 25.2C97.4349 25.3067 97.4883 25.4533 97.4883 25.64C97.5149 26.1733 97.1149 26.8267 96.2883 27.6C95.4883 28.3467 94.3949 29 93.0083 29.56C91.6216 30.0933 90.0883 30.36 88.4083 30.36C86.5949 30.36 85.1416 29.9467 84.0483 29.12C82.9549 28.2933 82.4083 27.16 82.4083 25.72C82.4083 25.0533 82.5149 24.4133 82.7283 23.8L85.2883 15.88C85.4216 15.4267 85.4883 15.0667 85.4883 14.8C85.4883 14.2667 85.3549 13.8133 85.0883 13.44C84.8483 13.0667 84.5016 12.68 84.0483 12.28C83.6483 11.9067 83.3683 11.6 83.2083 11.36C83.0483 11.0933 83.0083 10.7867 83.0883 10.44C83.1949 10.0933 83.4216 9.82667 83.7683 9.64C84.1149 9.45333 84.6616 9.36 85.4083 9.36H87.6483L90.1683 6.84C91.0483 5.96 91.8483 5.34667 92.5683 5C93.3149 4.65333 94.2749 4.48 95.4483 4.48C97.1283 4.48 97.9683 5.12 97.9683 6.4C97.9683 6.8 97.9149 7.17333 97.8083 7.52L97.2483 9.36H99.3683Z" fill="#FF7A00"/>
</svg>
