<svg width="734" height="195" viewBox="0 0 734 195" fill="none" xmlns="http://www.w3.org/2000/svg">
<path d="M76.213 193.536C61.877 193.536 48.9917 190.891 37.557 185.6C26.1223 180.309 16.9917 172.544 10.165 162.304C3.509 151.893 0.181001 139.349 0.181001 124.672C0.181001 114.432 1.973 103.339 5.557 91.392C13.4077 65.792 25.269 47.36 41.141 36.096C57.013 24.6613 73.9943 18.944 92.085 18.944C101.813 18.944 110.432 20.3947 117.941 23.296C125.45 26.1973 132.362 30.3787 138.677 35.84L145.589 30.464C150.197 26.88 154.037 24.4053 157.109 23.04C160.352 21.6747 163.936 20.992 167.861 20.992C172.128 20.992 175.541 21.9307 178.101 23.808C180.661 25.6853 181.941 28.416 181.941 32C181.941 33.8773 181.6 35.7547 180.917 37.632L166.581 77.568C165.045 82.176 163.168 85.4187 160.949 87.296C158.901 89.1733 155.744 90.112 151.477 90.112C147.04 90.112 143.37 88.576 140.469 85.504C137.738 82.2613 134.581 76.8 130.997 69.12C126.901 61.0987 123.573 55.808 121.013 53.248C118.453 50.688 114.698 49.408 109.749 49.408C102.752 49.408 96.0103 53.76 89.525 62.464C83.0397 70.9973 77.1517 83.8827 71.861 101.12C67.4237 115.627 65.205 127.744 65.205 137.472C65.205 146.005 66.8263 152.405 70.069 156.672C73.3117 160.768 77.6637 162.816 83.125 162.816C91.1463 162.816 97.717 161.024 102.837 157.44C108.128 153.856 113.504 148.992 118.965 142.848C122.378 139.093 125.109 136.363 127.157 134.656C129.376 132.779 131.68 131.84 134.069 131.84C137.141 131.84 140.384 133.376 143.797 136.448C147.21 139.52 148.832 142.592 148.661 145.664C148.832 149.419 145.76 155.221 139.445 163.072C133.301 170.923 124.682 178.005 113.589 184.32C102.666 190.464 90.2077 193.536 76.213 193.536ZM255.767 56.576C275.394 56.576 291.095 60.2453 302.871 67.584C314.647 74.752 320.535 85.76 320.535 100.608C320.535 106.24 319.511 112.64 317.463 119.808L306.967 155.136C306.796 155.819 306.711 156.672 306.711 157.696C306.711 160.427 307.82 161.792 310.039 161.792C312.087 161.792 313.794 160.939 315.159 159.232C316.695 157.355 317.719 156.416 318.231 156.416C319.084 156.416 319.767 157.013 320.279 158.208C320.962 159.403 321.303 160.768 321.303 162.304C321.474 166.912 319.682 171.605 315.927 176.384C312.343 181.163 307.479 185.088 301.335 188.16C295.191 191.232 288.45 192.768 281.111 192.768C272.236 192.768 264.642 191.147 258.327 187.904C252.012 184.661 247.66 179.883 245.271 173.568C240.151 179.712 234.092 184.491 227.095 187.904C220.098 191.147 212.588 192.768 204.567 192.768C195.522 192.768 187.927 191.061 181.783 187.648C175.639 184.064 171.031 179.541 167.959 174.08C165.058 168.448 163.607 162.56 163.607 156.416C163.607 153.685 163.863 151.04 164.375 148.48C167.106 136.704 172.994 127.829 182.039 121.856C191.255 115.883 202.178 112.896 214.807 112.896C228.972 112.896 242.882 115.115 256.535 119.552L262.935 102.656C265.154 95.488 266.263 89.9413 266.263 86.016C266.092 81.92 264.727 78.848 262.167 76.8C259.607 74.752 255.682 73.728 250.391 73.728C251.415 76.4587 251.927 79.2747 251.927 82.176C251.927 88.4907 249.538 93.952 244.759 98.56C239.98 103.168 233.154 105.472 224.279 105.472C215.916 105.472 209.346 103.68 204.567 100.096C199.959 96.3413 197.655 91.7333 197.655 86.272C197.655 77.7387 202.434 70.656 211.991 65.024C221.548 59.392 236.14 56.576 255.767 56.576ZM241.431 134.144C236.652 134.144 232.727 136.021 229.655 139.776C226.754 143.36 225.303 147.285 225.303 151.552C225.303 154.283 225.9 156.501 227.095 158.208C228.46 159.915 230.338 160.768 232.727 160.768C234.946 160.768 237.335 159.915 239.895 158.208C242.626 156.331 244.588 153.6 245.783 150.016L251.159 134.912C248.258 134.4 245.015 134.144 241.431 134.144ZM413.539 2.81599C423.438 2.81599 430.691 4.69333 435.299 8.448C440.078 12.2027 442.467 17.3227 442.467 23.808C442.467 27.5627 441.87 31.232 440.675 34.816L400.483 165.376C399.971 167.424 399.715 169.216 399.715 170.752C399.715 172.971 400.142 174.763 400.995 176.128C401.848 177.323 403.043 178.517 404.579 179.712C405.774 180.907 406.627 181.931 407.139 182.784C407.651 183.467 407.736 184.405 407.395 185.6C406.542 187.819 404.835 189.44 402.275 190.464C399.715 191.488 395.79 192 390.499 192H332.131C327.694 192 324.451 191.317 322.403 189.952C320.355 188.416 319.672 186.453 320.355 184.064C321.038 182.016 322.83 180.224 325.731 178.688C328.291 177.323 330.424 175.701 332.131 173.824C333.838 171.947 335.288 168.96 336.483 164.864L375.395 37.12C375.907 35.584 376.163 34.304 376.163 33.28C376.163 31.4027 375.651 29.8667 374.627 28.672C373.774 27.4773 372.579 26.2827 371.043 25.088C369.336 23.7227 368.056 22.528 367.203 21.504C366.52 20.48 366.435 19.1147 366.947 17.408C367.971 13.4827 373.347 10.0693 383.075 7.16798C392.803 4.26666 402.958 2.81599 413.539 2.81599ZM492.953 56.576C502.852 56.576 510.105 58.4533 514.713 62.208C519.321 65.9627 521.625 71.0827 521.625 77.568C521.625 81.4933 521.028 85.248 519.833 88.832L496.281 165.376C495.769 167.424 495.513 169.216 495.513 170.752C495.513 172.971 495.94 174.763 496.793 176.128C497.646 177.323 498.841 178.517 500.377 179.712C501.572 180.907 502.425 181.931 502.937 182.784C503.449 183.467 503.534 184.405 503.193 185.6C502.34 187.819 500.633 189.44 498.073 190.464C495.513 191.488 491.588 192 486.297 192H427.929C423.492 192 420.249 191.317 418.201 189.952C416.153 188.416 415.47 186.453 416.153 184.064C416.836 182.016 418.628 180.224 421.529 178.688C424.089 177.323 426.222 175.701 427.929 173.824C429.636 171.947 431.086 168.96 432.281 164.864L454.553 90.88C455.065 89.344 455.321 88.064 455.321 87.04C455.321 85.1627 454.894 83.712 454.041 82.688C453.188 81.4933 451.908 80.2987 450.201 79.104C448.494 77.7387 447.3 76.544 446.617 75.52C445.934 74.496 445.849 73.1307 446.361 71.424C447.385 67.4987 452.761 64.0853 462.489 61.184C472.217 58.112 482.372 56.576 492.953 56.576ZM510.105 -1.52588e-05C516.761 -1.52588e-05 522.308 2.21865 526.745 6.65599C531.182 10.9227 533.401 16.2133 533.401 22.528C533.401 26.9653 532.206 31.3173 529.817 35.584C527.598 39.8507 524.356 43.3493 520.089 46.08C515.993 48.64 511.385 49.92 506.265 49.92C499.78 49.92 494.318 47.7867 489.881 43.52C485.614 39.0827 483.396 33.6213 483.225 27.136C483.225 22.8693 484.334 18.688 486.553 14.592C488.772 10.3253 491.929 6.82666 496.025 4.09599C500.121 1.36532 504.814 -1.52588e-05 510.105 -1.52588e-05ZM633.807 59.904C637.05 59.904 639.524 60.5867 641.231 61.952C643.108 63.3173 644.047 65.1947 644.047 67.584C644.047 68.2667 643.876 69.4613 643.535 71.168C641.316 78.6773 636.196 82.432 628.175 82.432H613.327L594.127 145.664C593.274 148.224 592.847 150.869 592.847 153.6C592.847 156.672 593.7 158.805 595.407 160C597.114 161.195 599.503 161.792 602.575 161.792C605.306 161.792 608.719 161.451 612.815 160.768C614.863 160.256 616.655 160 618.191 160C619.386 160 620.239 160.427 620.751 161.28C621.434 161.963 621.775 162.901 621.775 164.096C621.946 167.509 619.386 171.691 614.095 176.64C608.975 181.419 601.978 185.6 593.103 189.184C584.228 192.597 574.415 194.304 563.663 194.304C552.058 194.304 542.756 191.659 535.759 186.368C528.762 181.077 525.263 173.824 525.263 164.608C525.263 160.341 525.946 156.245 527.311 152.32L543.695 101.632C544.548 98.7307 544.975 96.4267 544.975 94.72C544.975 91.3067 544.122 88.4053 542.415 86.016C540.879 83.6267 538.66 81.152 535.759 78.592C533.199 76.2027 531.407 74.24 530.383 72.704C529.359 70.9973 529.103 69.0347 529.615 66.816C530.298 64.5973 531.748 62.8907 533.967 61.696C536.186 60.5013 539.684 59.904 544.463 59.904H558.799L574.927 43.776C580.559 38.144 585.679 34.2187 590.287 32C595.066 29.7813 601.21 28.672 608.719 28.672C619.471 28.672 624.847 32.768 624.847 40.96C624.847 43.52 624.506 45.9093 623.823 48.128L620.239 59.904H633.807ZM665.471 39.936C666.666 14.5067 679.551 1.79199 704.127 1.79199C713.514 1.79199 720.767 3.83999 725.887 7.93599C731.178 12.032 733.823 17.7493 733.823 25.088C733.823 32.5973 731.178 41.1307 725.887 50.688L685.695 122.368C683.647 126.293 681.514 129.109 679.295 130.816C677.247 132.352 674.687 133.12 671.615 133.12C664.959 133.12 661.802 129.109 662.143 121.088L665.471 39.936ZM664.703 140.288C671.53 140.288 677.247 142.592 681.855 147.2C686.634 151.808 689.023 157.44 689.023 164.096C689.023 168.704 687.743 173.227 685.183 177.664C682.794 182.101 679.38 185.771 674.943 188.672C670.676 191.403 665.812 192.768 660.351 192.768C653.695 192.768 648.063 190.464 643.455 185.856C638.847 181.248 636.458 175.616 636.287 168.96C636.287 164.352 637.482 159.829 639.871 155.392C642.26 150.955 645.588 147.371 649.855 144.64C654.292 141.739 659.242 140.288 664.703 140.288Z" fill="black"/>
</svg>
