<svg width="556" height="181" viewBox="0 0 556 181" fill="none" xmlns="http://www.w3.org/2000/svg">
<path d="M92.115 148.456C100.99 148.456 108.883 147.219 115.795 144.744C122.707 142.184 127.784 139.667 131.027 137.192L144.723 164.456C140.798 167.869 134.014 171.325 124.371 174.824C114.814 178.323 103.379 180.072 90.067 180.072C77.6083 180.072 65.9603 177.896 55.123 173.544C44.2857 169.107 34.771 162.963 26.579 155.112C18.387 147.176 11.987 137.917 7.37899 127.336C2.77099 116.669 0.466993 105.149 0.466993 92.776C0.466993 80.4027 2.72833 68.8827 7.25099 58.216C11.859 47.464 18.259 38.12 26.451 30.184C34.643 22.248 44.1577 16.0613 54.995 11.624C65.9177 7.18666 77.6083 4.96799 90.067 4.96799C103.379 4.96799 114.814 6.71732 124.371 10.216C134.014 13.7147 140.798 17.1707 144.723 20.584L131.027 47.848C127.784 45.3733 122.707 42.8987 115.795 40.424C108.883 37.864 100.99 36.584 92.115 36.584C83.0697 36.584 75.0057 38.0347 67.923 40.936C60.9257 43.8373 54.9523 47.8907 50.003 53.096C45.139 58.216 41.427 64.1467 38.867 70.888C36.307 77.6293 35.027 84.7973 35.027 92.392C35.027 100.072 36.307 107.325 38.867 114.152C41.427 120.893 45.139 126.867 50.003 132.072C54.9523 137.192 60.9257 141.203 67.923 144.104C75.0057 147.005 83.0697 148.456 92.115 148.456ZM241.529 177V158.696C240.761 160.573 238.798 163.219 235.641 166.632C232.484 170.045 228.217 173.16 222.841 175.976C217.55 178.707 211.321 180.072 204.153 180.072C194.084 180.072 185.166 177.683 177.401 172.904C169.636 168.04 163.534 161.427 159.097 153.064C154.745 144.616 152.569 135.101 152.569 124.52C152.569 113.939 154.745 104.467 159.097 96.104C163.534 87.656 169.636 81 177.401 76.136C185.166 71.272 194.084 68.84 204.153 68.84C211.15 68.84 217.209 70.0347 222.329 72.424C227.534 74.728 231.716 77.4587 234.873 80.616C238.116 83.688 240.206 86.4613 241.145 88.936V71.912H273.401V177H241.529ZM184.441 124.52C184.441 130.408 185.764 135.613 188.409 140.136C191.054 144.573 194.553 148.029 198.905 150.504C203.257 152.979 207.993 154.216 213.113 154.216C218.489 154.216 223.268 152.979 227.449 150.504C231.63 147.944 234.916 144.445 237.305 140.008C239.78 135.485 241.017 130.323 241.017 124.52C241.017 118.717 239.78 113.597 237.305 109.16C234.916 104.637 231.63 101.096 227.449 98.536C223.268 95.976 218.489 94.696 213.113 94.696C207.993 94.696 203.257 95.976 198.905 98.536C194.553 101.011 191.054 104.509 188.409 109.032C185.764 113.469 184.441 118.632 184.441 124.52ZM332.987 177H300.347V0.871994H332.987V177ZM362.383 177V71.912H394.767V177H362.383ZM379.023 44.776C373.647 44.776 369.082 42.8987 365.327 39.144C361.658 35.3893 359.823 30.9093 359.823 25.704C359.823 20.4987 361.7 15.976 365.455 12.136C369.21 8.29599 373.732 6.37599 379.023 6.37599C382.522 6.37599 385.722 7.27199 388.623 9.064C391.524 10.7707 393.871 13.0747 395.663 15.976C397.455 18.8773 398.351 22.12 398.351 25.704C398.351 30.9093 396.431 35.3893 392.591 39.144C388.836 42.8987 384.314 44.776 379.023 44.776ZM410.261 71.912H429.205V28.776H461.461V71.912H486.293V98.92H461.461V136.936C461.461 141.971 462.272 145.896 463.893 148.712C465.514 151.443 468.074 152.808 471.573 152.808C474.218 152.808 476.394 152.296 478.101 151.272C479.808 150.163 480.832 149.395 481.173 148.968L492.693 172.264C492.181 172.776 490.517 173.672 487.701 174.952C484.97 176.232 481.429 177.384 477.077 178.408C472.81 179.517 467.989 180.072 462.613 180.072C452.97 180.072 444.992 177.299 438.677 171.752C432.362 166.12 429.205 157.416 429.205 145.64V98.92H410.261V71.912ZM523.435 125.032L516.651 0.871994H552.107L545.323 125.032H523.435ZM534.187 180.072C530.432 180.072 526.976 179.133 523.819 177.256C520.662 175.379 518.102 172.861 516.139 169.704C514.262 166.547 513.323 163.048 513.323 159.208C513.323 153.32 515.371 148.328 519.467 144.232C523.563 140.136 528.47 138.088 534.187 138.088C540.075 138.088 545.067 140.136 549.163 144.232C553.259 148.328 555.307 153.32 555.307 159.208C555.307 164.925 553.259 169.832 549.163 173.928C545.067 178.024 540.075 180.072 534.187 180.072Z" fill="black"/>
</svg>
