<svg width="245" height="39" viewBox="0 0 245 39" fill="none" xmlns="http://www.w3.org/2000/svg">
<path d="M22.8764 4.36C25.7031 4.36 27.8764 4.97333 29.3964 6.2C30.9431 7.42667 31.7164 9.05333 31.7164 11.08C31.7164 11.88 31.5964 12.72 31.3564 13.6C30.6097 16.2667 29.1297 18.24 26.9164 19.52C24.7297 20.8 21.9564 21.44 18.5964 21.44H14.4764L13.1164 26.28C13.0631 26.44 13.0364 26.6533 13.0364 26.92C13.0364 27.2933 13.1164 27.6 13.2764 27.84C13.4631 28.08 13.7297 28.36 14.0764 28.68C14.3697 28.9467 14.5697 29.1467 14.6764 29.28C14.7831 29.4133 14.8364 29.5733 14.8364 29.76C14.8364 30.2133 14.6231 30.5333 14.1964 30.72C13.7697 30.9067 13.1431 31 12.3164 31H2.27641C1.58307 31 1.06307 30.88 0.716406 30.64C0.36974 30.3733 0.24974 30.0133 0.356406 29.56C0.40974 29.32 0.516406 29.1333 0.676406 29C0.80974 28.84 1.02307 28.6667 1.31641 28.48C1.76974 28.2133 2.12974 27.9333 2.39641 27.64C2.66307 27.3467 2.87641 26.8933 3.03641 26.28L7.91641 9.04C8.02307 8.69333 8.07641 8.36 8.07641 8.04C8.07641 7.74667 8.02307 7.50667 7.91641 7.32C7.83641 7.10667 7.71641 6.86667 7.55641 6.6C7.31641 6.25333 7.19641 5.97333 7.19641 5.76C7.19641 5.68 7.22307 5.53333 7.27641 5.32C7.38307 4.97333 7.60974 4.73333 7.95641 4.6C8.32974 4.44 8.88974 4.36 9.63641 4.36H22.8764ZM21.8364 12.88C22.1297 11.8933 22.2764 11.0267 22.2764 10.28C22.2764 8.73333 21.5564 7.96 20.1164 7.96H18.3164L15.4764 17.84H17.2364C18.3564 17.84 19.2631 17.4933 19.9564 16.8C20.6764 16.08 21.3031 14.7733 21.8364 12.88ZM48.2611 9.84C49.7544 9.84 50.9411 10.2933 51.8211 11.2C52.7278 12.1067 53.1811 13.2267 53.1811 14.56C53.1811 15.0667 53.1278 15.5333 53.0211 15.96C52.7544 17.0533 52.2478 17.8933 51.5011 18.48C50.7544 19.0667 49.8611 19.36 48.8211 19.36C47.8078 19.36 47.0344 19.12 46.5011 18.64C45.9944 18.16 45.5411 17.52 45.1411 16.72C44.9278 16.2667 44.7278 15.9333 44.5411 15.72C44.3544 15.5067 44.1411 15.4 43.9011 15.4C43.6344 15.4 43.3944 15.5067 43.1811 15.72C42.9944 15.9333 42.8211 16.3067 42.6611 16.84L39.5811 26.84C39.5278 26.9733 39.5011 27.1733 39.5011 27.44C39.5011 27.7867 39.5944 28.08 39.7811 28.32C39.9944 28.5333 40.2744 28.7467 40.6211 28.96C40.9411 29.1733 41.1544 29.3467 41.2611 29.48C41.3678 29.6133 41.4078 29.7867 41.3811 30C41.3278 30.3467 41.1278 30.6 40.7811 30.76C40.4611 30.92 39.9011 31 39.1011 31H28.8611C28.1678 31 27.6744 30.8933 27.3811 30.68C27.0611 30.44 26.9411 30.1333 27.0211 29.76C27.1278 29.44 27.4078 29.16 27.8611 28.92C28.2611 28.7067 28.5944 28.4533 28.8611 28.16C29.1278 27.8667 29.3544 27.4 29.5411 26.76L33.1011 15.2C33.1544 15.0667 33.1811 14.88 33.1811 14.64C33.1811 14.3467 33.1144 14.12 32.9811 13.96C32.8744 13.8 32.6878 13.6 32.4211 13.36C32.1544 13.1467 31.9678 12.96 31.8611 12.8C31.7544 12.64 31.7411 12.4267 31.8211 12.16C31.9811 11.5467 32.8211 11.0133 34.3411 10.56C35.8611 10.08 37.4478 9.84 39.1011 9.84C40.1944 9.84 41.1011 10.0933 41.8211 10.6C42.5411 11.08 43.0078 11.7733 43.2211 12.68C44.5011 10.7867 46.1811 9.84 48.2611 9.84ZM67.2652 9.84C70.8918 9.84 73.5585 10.5733 75.2652 12.04C76.9985 13.5067 77.8652 15.4267 77.8652 17.8C77.8652 18.6 77.7585 19.4933 77.5452 20.48C77.0385 22.6667 76.0918 24.5867 74.7052 26.24C73.3185 27.8667 71.6118 29.1333 69.5852 30.04C67.5852 30.92 65.4118 31.36 63.0652 31.36C59.3585 31.36 56.6118 30.6267 54.8252 29.16C53.0652 27.6667 52.1852 25.6933 52.1852 23.24C52.1852 22.4133 52.2918 21.4933 52.5052 20.48C53.0118 18.4 53.9718 16.56 55.3852 14.96C56.8252 13.3333 58.5718 12.08 60.6252 11.2C62.7052 10.2933 64.9185 9.84 67.2652 9.84ZM67.1452 13.4C66.5852 13.4 65.9852 13.9067 65.3452 14.92C64.7318 15.9067 63.9985 17.7867 63.1452 20.56C62.2918 23.3333 61.8652 25.28 61.8652 26.4C61.8652 26.9867 61.9585 27.3867 62.1452 27.6C62.3318 27.7867 62.5852 27.88 62.9052 27.88C63.4652 27.9333 64.0385 27.4533 64.6252 26.44C65.2385 25.4267 65.9985 23.4533 66.9052 20.52C67.7318 17.9333 68.1452 16.0533 68.1452 14.88C68.1452 14.32 68.0518 13.9333 67.8652 13.72C67.7052 13.5067 67.4652 13.4 67.1452 13.4ZM91.2352 0.879999C92.3018 0.879999 93.1952 1.24 93.9152 1.96C94.6352 2.65333 94.9952 3.50666 94.9952 4.52C95.0218 5.26667 94.8352 6 94.4352 6.72C94.0618 7.41333 93.5285 7.98667 92.8352 8.44C92.1685 8.86667 91.3952 9.08 90.5152 9.08C89.4485 9.08 88.5552 8.72 87.8352 8C87.1418 7.25333 86.7952 6.34667 86.7952 5.28C86.7952 4.58667 86.9818 3.90667 87.3552 3.24C87.7285 2.54667 88.2485 1.98667 88.9152 1.56C89.6085 1.10667 90.3818 0.879999 91.2352 0.879999ZM81.6752 15.2C81.7285 15.0667 81.7552 14.88 81.7552 14.64C81.7552 14.3467 81.6885 14.12 81.5552 13.96C81.4485 13.8 81.2618 13.6 80.9952 13.36C80.7285 13.1467 80.5418 12.96 80.4352 12.8C80.3285 12.64 80.3152 12.4267 80.3952 12.16C80.5552 11.5467 81.3952 11.0133 82.9152 10.56C84.4352 10.08 86.0218 9.84 87.6752 9.84C89.2218 9.84 90.3552 10.1333 91.0752 10.72C91.7952 11.3067 92.1552 12.1067 92.1552 13.12C92.1552 13.7333 92.0618 14.32 91.8752 14.88L86.9552 31.44C86.1552 34.08 84.9018 35.9333 83.1952 37C81.4885 38.0667 79.1952 38.6 76.3152 38.6C75.1685 38.6 74.1818 38.4533 73.3552 38.16C72.5018 37.8667 72.1552 37.4667 72.3152 36.96C72.3685 36.7733 72.4885 36.6 72.6752 36.44C72.8618 36.28 73.1418 36.1067 73.5152 35.92C74.2085 35.5467 74.7952 35.1333 75.2752 34.68C75.7285 34.2533 76.0885 33.6133 76.3552 32.76L81.6752 15.2ZM104.994 9.64C108.38 9.64 110.834 10.1867 112.354 11.28C113.874 12.3467 114.634 13.72 114.634 15.4C114.634 15.9067 114.58 16.3733 114.474 16.8C114.074 18.56 112.954 19.8267 111.114 20.6C109.3 21.3467 107.154 21.72 104.674 21.72C103.42 21.72 102.247 21.64 101.154 21.48C101.127 22.8667 101.5 23.84 102.274 24.4C103.047 24.96 104.127 25.24 105.514 25.24C106.154 25.24 106.767 25.1733 107.354 25.04C107.94 24.88 108.687 24.6533 109.594 24.36C110.34 24.0933 110.847 23.96 111.114 23.96C111.407 23.96 111.554 24.1333 111.554 24.48C111.58 25.4133 111.234 26.4 110.514 27.44C109.794 28.4533 108.727 29.32 107.314 30.04C105.9 30.76 104.194 31.12 102.194 31.12C99.2336 31.12 96.8069 30.3733 94.9136 28.88C93.0203 27.3867 92.0736 25.2133 92.0736 22.36C92.0736 21.56 92.1803 20.6267 92.3936 19.56C93.0603 16.28 94.5136 13.8133 96.7536 12.16C99.0203 10.48 101.767 9.64 104.994 9.64ZM101.434 19.08C101.54 19.1067 101.687 19.12 101.874 19.12C102.994 19.12 103.847 18.6 104.434 17.56C105.02 16.52 105.3 15.36 105.274 14.08C105.247 13.3333 105.034 12.96 104.634 12.96C104.34 12.96 103.994 13.2 103.594 13.68C103.194 14.1333 102.794 14.8267 102.394 15.76C102.02 16.6933 101.7 17.8 101.434 19.08ZM128.336 9.64C129.963 9.64 131.39 9.88 132.616 10.36C133.843 10.8133 134.79 11.4533 135.456 12.28C136.15 13.08 136.496 13.9733 136.496 14.96C136.496 16.0267 136.123 16.9067 135.376 17.6C134.656 18.2933 133.67 18.64 132.416 18.64C131.136 18.64 130.136 18.32 129.416 17.68C128.696 17.0133 128.336 16.12 128.336 15C128.336 14.4667 128.416 13.9067 128.576 13.32C127.456 13.6133 126.456 14.2 125.576 15.08C124.723 15.9333 124.15 17.0667 123.856 18.48C123.696 19.28 123.616 20 123.616 20.64C123.616 22.08 124.016 23.1733 124.816 23.92C125.616 24.6667 126.763 25.04 128.256 25.04C129.11 25.04 129.843 24.96 130.456 24.8C131.07 24.6133 131.696 24.3733 132.336 24.08C132.87 23.8133 133.256 23.68 133.496 23.68C133.656 23.68 133.763 23.72 133.816 23.8C133.87 23.8533 133.896 23.9867 133.896 24.2C133.923 25.1867 133.51 26.2267 132.656 27.32C131.83 28.3867 130.67 29.2933 129.176 30.04C127.71 30.76 126.056 31.12 124.216 31.12C122.296 31.12 120.59 30.7733 119.096 30.08C117.63 29.36 116.483 28.3467 115.656 27.04C114.856 25.7067 114.456 24.16 114.456 22.4C114.456 21.5733 114.563 20.6533 114.776 19.64C115.496 16.3333 117.083 13.84 119.536 12.16C122.016 10.48 124.95 9.64 128.336 9.64ZM153.767 10.36C154.273 10.36 154.66 10.4667 154.927 10.68C155.22 10.8933 155.367 11.1867 155.367 11.56C155.367 11.6667 155.34 11.8533 155.287 12.12C154.94 13.2933 154.14 13.88 152.887 13.88H150.567L147.567 23.76C147.433 24.16 147.367 24.5733 147.367 25C147.367 25.48 147.5 25.8133 147.767 26C148.033 26.1867 148.407 26.28 148.887 26.28C149.313 26.28 149.847 26.2267 150.487 26.12C150.807 26.04 151.087 26 151.327 26C151.513 26 151.647 26.0667 151.727 26.2C151.833 26.3067 151.887 26.4533 151.887 26.64C151.913 27.1733 151.513 27.8267 150.687 28.6C149.887 29.3467 148.793 30 147.407 30.56C146.02 31.0933 144.487 31.36 142.807 31.36C140.993 31.36 139.54 30.9467 138.447 30.12C137.353 29.2933 136.807 28.16 136.807 26.72C136.807 26.0533 136.913 25.4133 137.127 24.8L139.687 16.88C139.82 16.4267 139.887 16.0667 139.887 15.8C139.887 15.2667 139.753 14.8133 139.487 14.44C139.247 14.0667 138.9 13.68 138.447 13.28C138.047 12.9067 137.767 12.6 137.607 12.36C137.447 12.0933 137.407 11.7867 137.487 11.44C137.593 11.0933 137.82 10.8267 138.167 10.64C138.513 10.4533 139.06 10.36 139.807 10.36H142.047L144.567 7.84C145.447 6.96 146.247 6.34667 146.967 6C147.713 5.65333 148.673 5.48 149.847 5.48C151.527 5.48 152.367 6.12 152.367 7.4C152.367 7.8 152.313 8.17333 152.207 8.52L151.647 10.36H153.767ZM184.002 20.68C184.749 20.68 185.309 20.84 185.682 21.16C186.082 21.4533 186.282 21.88 186.282 22.44C186.282 22.68 186.242 22.9467 186.162 23.24L184.842 27.92C184.495 29.0667 184.002 29.8667 183.362 30.32C182.749 30.7733 181.829 31 180.602 31H161.802C161.242 31 160.815 30.9067 160.522 30.72C160.202 30.5333 160.042 30.28 160.042 29.96C160.042 29.8 160.082 29.6267 160.162 29.44C160.242 29.2267 160.375 29.0533 160.562 28.92C160.749 28.76 160.949 28.6133 161.162 28.48C161.589 28.2133 161.935 27.9467 162.202 27.68C162.469 27.3867 162.695 26.92 162.882 26.28L167.762 9.04C167.869 8.69333 167.922 8.36 167.922 8.04C167.922 7.74667 167.869 7.50667 167.762 7.32C167.682 7.10667 167.562 6.86667 167.402 6.6C167.162 6.25333 167.042 5.97333 167.042 5.76C167.042 5.68 167.069 5.53333 167.122 5.32C167.229 4.97333 167.455 4.73333 167.802 4.6C168.175 4.44 168.735 4.36 169.482 4.36H178.882C179.442 4.36 179.869 4.45333 180.162 4.64C180.482 4.8 180.642 5.04 180.642 5.36C180.642 5.49333 180.602 5.66667 180.522 5.88C180.442 6.06667 180.322 6.24 180.162 6.4C180.029 6.53333 179.895 6.64 179.762 6.72C179.655 6.77333 179.575 6.82667 179.522 6.88C179.095 7.12 178.749 7.38667 178.482 7.68C178.215 7.97333 177.989 8.42667 177.802 9.04L172.642 27.16H175.122C175.735 27.16 176.255 27.0533 176.682 26.84C177.135 26.6267 177.602 26.2267 178.082 25.64L180.842 22.36C181.349 21.7733 181.829 21.3467 182.282 21.08C182.762 20.8133 183.335 20.68 184.002 20.68ZM197.657 9.84C199.203 9.84 200.337 10.1333 201.057 10.72C201.777 11.3067 202.137 12.1067 202.137 13.12C202.137 13.7333 202.043 14.32 201.857 14.88L198.177 26.84C198.097 27.16 198.057 27.44 198.057 27.68C198.057 28.0267 198.123 28.3067 198.257 28.52C198.39 28.7067 198.577 28.8933 198.817 29.08C199.003 29.2667 199.137 29.4267 199.217 29.56C199.297 29.6667 199.31 29.8133 199.257 30C199.123 30.3467 198.857 30.6 198.457 30.76C198.057 30.92 197.443 31 196.617 31H187.497C186.803 31 186.297 30.8933 185.977 30.68C185.657 30.44 185.55 30.1333 185.657 29.76C185.763 29.44 186.043 29.16 186.497 28.92C186.897 28.7067 187.23 28.4533 187.497 28.16C187.763 27.8667 187.99 27.4 188.177 26.76L191.657 15.2C191.737 14.96 191.777 14.76 191.777 14.6C191.777 14.3067 191.71 14.08 191.577 13.92C191.443 13.7333 191.243 13.5467 190.977 13.36C190.71 13.1467 190.523 12.96 190.417 12.8C190.31 12.64 190.297 12.4267 190.377 12.16C190.537 11.5467 191.377 11.0133 192.897 10.56C194.417 10.08 196.003 9.84 197.657 9.84ZM200.337 0.999998C201.377 0.999998 202.243 1.34666 202.937 2.04C203.63 2.70666 203.977 3.53333 203.977 4.52C203.977 5.21333 203.79 5.89333 203.417 6.56C203.07 7.22667 202.563 7.77333 201.897 8.2C201.257 8.6 200.537 8.8 199.737 8.8C198.723 8.8 197.87 8.46667 197.177 7.8C196.51 7.10667 196.163 6.25333 196.137 5.24C196.137 4.57333 196.31 3.92 196.657 3.28C197.003 2.61333 197.497 2.06666 198.137 1.64C198.777 1.21333 199.51 0.999998 200.337 0.999998ZM214.945 9.48C217.158 9.48 219.065 9.68 220.665 10.08C222.292 10.48 223.532 11.04 224.385 11.76C225.265 12.48 225.705 13.2933 225.705 14.2C225.705 15.1333 225.332 15.8933 224.585 16.48C223.865 17.0667 222.852 17.36 221.545 17.36C220.212 17.36 219.078 17.0267 218.145 16.36C217.238 15.6933 216.785 14.8533 216.785 13.84C216.785 13.4933 216.838 13.16 216.945 12.84C216.465 12.7067 216.038 12.64 215.665 12.64C214.998 12.64 214.438 12.8 213.985 13.12C213.558 13.44 213.358 13.8933 213.385 14.48C213.385 15.1733 213.732 15.76 214.425 16.24C215.118 16.72 216.238 17.32 217.785 18.04C219.118 18.6267 220.212 19.1733 221.065 19.68C221.945 20.16 222.678 20.7733 223.265 21.52C223.878 22.2667 224.185 23.1467 224.185 24.16C224.185 24.3733 224.132 24.7733 224.025 25.36C223.598 27.1467 222.412 28.56 220.465 29.6C218.518 30.64 215.958 31.16 212.785 31.16C209.212 31.16 206.372 30.68 204.265 29.72C202.185 28.76 201.145 27.44 201.145 25.76C201.145 24.6133 201.492 23.7467 202.185 23.16C202.878 22.5733 203.798 22.28 204.945 22.28C206.278 22.28 207.412 22.6933 208.345 23.52C209.305 24.3467 209.785 25.4 209.785 26.68C209.785 27.0267 209.745 27.3867 209.665 27.76C210.305 27.92 210.918 28 211.505 28C212.198 28 212.772 27.8133 213.225 27.44C213.678 27.0667 213.905 26.5467 213.905 25.88C213.878 25.2667 213.572 24.7467 212.985 24.32C212.398 23.8667 211.465 23.3333 210.185 22.72C208.985 22.16 207.998 21.64 207.225 21.16C206.452 20.6533 205.785 20.0267 205.225 19.28C204.692 18.5333 204.425 17.6533 204.425 16.64C204.425 14.4533 205.332 12.72 207.145 11.44C208.985 10.1333 211.585 9.48 214.945 9.48ZM243.376 10.36C243.883 10.36 244.269 10.4667 244.536 10.68C244.829 10.8933 244.976 11.1867 244.976 11.56C244.976 11.6667 244.949 11.8533 244.896 12.12C244.549 13.2933 243.749 13.88 242.496 13.88H240.176L237.176 23.76C237.043 24.16 236.976 24.5733 236.976 25C236.976 25.48 237.109 25.8133 237.376 26C237.643 26.1867 238.016 26.28 238.496 26.28C238.923 26.28 239.456 26.2267 240.096 26.12C240.416 26.04 240.696 26 240.936 26C241.123 26 241.256 26.0667 241.336 26.2C241.443 26.3067 241.496 26.4533 241.496 26.64C241.523 27.1733 241.123 27.8267 240.296 28.6C239.496 29.3467 238.403 30 237.016 30.56C235.629 31.0933 234.096 31.36 232.416 31.36C230.603 31.36 229.149 30.9467 228.056 30.12C226.963 29.2933 226.416 28.16 226.416 26.72C226.416 26.0533 226.523 25.4133 226.736 24.8L229.296 16.88C229.429 16.4267 229.496 16.0667 229.496 15.8C229.496 15.2667 229.363 14.8133 229.096 14.44C228.856 14.0667 228.509 13.68 228.056 13.28C227.656 12.9067 227.376 12.6 227.216 12.36C227.056 12.0933 227.016 11.7867 227.096 11.44C227.203 11.0933 227.429 10.8267 227.776 10.64C228.123 10.4533 228.669 10.36 229.416 10.36H231.656L234.176 7.84C235.056 6.96 235.856 6.34667 236.576 6C237.323 5.65333 238.283 5.48 239.456 5.48C241.136 5.48 241.976 6.12 241.976 7.4C241.976 7.8 241.923 8.17333 241.816 8.52L241.256 10.36H243.376Z" fill="black"/>
</svg>
