<svg width="195" height="33" viewBox="0 0 195 33" fill="none" xmlns="http://www.w3.org/2000/svg">
<path d="M12.9514 20.208H7.95938V26H0.279375V2H12.3754C17.8794 2 20.6314 4.95467 20.6314 10.864C20.6314 12.1653 20.5034 13.3813 20.2474 14.512C19.9914 15.6427 19.554 16.6347 18.9354 17.488C18.338 18.32 17.5487 18.9813 16.5674 19.472C15.6074 19.9627 14.402 20.208 12.9514 20.208ZM9.71938 8.144H7.95938V14.064H9.71938C10.658 14.064 11.33 13.968 11.7354 13.776C12.162 13.584 12.3754 13.136 12.3754 12.432V9.744C12.3754 9.06133 12.162 8.624 11.7354 8.432C11.33 8.24 10.658 8.144 9.71938 8.144ZM22.9356 26V6.8H26.7756L28.8876 8.944C30.4236 7.536 32.3223 6.62933 34.5836 6.224L35.0316 13.488C34.733 13.488 34.3703 13.5307 33.9436 13.616C33.517 13.7013 33.0796 13.808 32.6316 13.936C32.205 14.064 31.8103 14.224 31.4476 14.416C31.085 14.5867 30.8076 14.7893 30.6156 15.024V26H22.9356ZM36.5739 16.4C36.5739 12.9653 37.3739 10.416 38.9739 8.752C40.5739 7.06667 43.1659 6.224 46.7499 6.224C50.3339 6.224 52.9259 7.06667 54.5259 8.752C56.1259 10.416 56.9259 12.9653 56.9259 16.4C56.9259 19.8347 56.1259 22.3947 54.5259 24.08C52.9259 25.744 50.3339 26.576 46.7499 26.576C43.2512 26.576 40.6805 25.7547 39.0379 24.112C37.3952 22.4693 36.5739 19.8987 36.5739 16.4ZM44.8299 13.456V20.976H46.0139C46.9525 20.976 47.6245 20.88 48.0299 20.688C48.4565 20.496 48.6699 20.048 48.6699 19.344V11.824H47.4859C46.5472 11.824 45.8645 11.92 45.4379 12.112C45.0325 12.304 44.8299 12.752 44.8299 13.456ZM61.7261 32.336H56.1581V27.344L58.1421 26.96C58.9528 26.7893 59.4648 26.5653 59.6781 26.288C59.8915 26.032 59.9981 25.744 59.9981 25.424V7.76L67.6781 6.8V26C67.6781 28.0907 67.1661 29.6693 66.1421 30.736C65.1395 31.8027 63.6675 32.336 61.7261 32.336ZM59.5821 3.184C59.5821 2.608 59.6461 2.128 59.7741 1.744C59.9021 1.33867 60.1261 1.01867 60.4461 0.783998C60.7661 0.527999 61.2035 0.346666 61.7581 0.239998C62.3128 0.133331 63.0168 0.079998 63.8701 0.079998C64.7235 0.079998 65.4168 0.133331 65.9501 0.239998C66.5048 0.346666 66.9421 0.527999 67.2621 0.783998C67.5821 1.01867 67.8061 1.33867 67.9341 1.744C68.0621 2.128 68.1261 2.608 68.1261 3.184C68.1261 3.76 68.0621 4.24 67.9341 4.624C67.8061 5.008 67.5821 5.328 67.2621 5.584C66.9421 5.81867 66.5048 5.98933 65.9501 6.096C65.4168 6.18133 64.7235 6.224 63.8701 6.224C63.2515 6.224 62.6755 6.20267 62.1421 6.16C61.6301 6.11733 61.1821 6 60.7981 5.808C60.4141 5.59467 60.1155 5.28533 59.9021 4.88C59.6888 4.47467 59.5821 3.90933 59.5821 3.184ZM79.0174 19.472V20.816C79.4014 20.8587 79.7854 20.8907 80.1694 20.912C80.5534 20.9333 80.9374 20.944 81.3214 20.944C83.7107 20.944 86.1214 20.56 88.5534 19.792L89.4494 25.424C86.5694 26.192 83.732 26.576 80.9374 26.576C77.3534 26.576 74.7614 25.744 73.1614 24.08C71.5614 22.3947 70.7614 19.8347 70.7614 16.4C70.7614 12.9653 71.5614 10.416 73.1614 8.752C74.7827 7.06667 77.3747 6.224 80.9374 6.224C82.7294 6.224 84.2227 6.34133 85.4174 6.576C86.612 6.78933 87.572 7.16267 88.2974 7.696C89.044 8.208 89.5667 8.912 89.8654 9.808C90.1854 10.6827 90.3454 11.792 90.3454 13.136C90.3454 14.2453 90.1534 15.2053 89.7694 16.016C89.4067 16.8053 88.788 17.456 87.9134 17.968C87.0387 18.48 85.876 18.864 84.4254 19.12C82.9747 19.3547 81.172 19.472 79.0174 19.472ZM79.0174 13.456V15.024H80.5854C81.524 15.024 82.196 14.928 82.6014 14.736C83.028 14.544 83.2414 14.096 83.2414 13.392V11.824H81.6734C80.7347 11.824 80.052 11.92 79.6254 12.112C79.22 12.304 79.0174 12.752 79.0174 13.456ZM107.297 20.24L107.777 25.776C106.454 26.3093 104.737 26.576 102.625 26.576C99.0409 26.576 96.4489 25.744 94.8489 24.08C93.2489 22.3947 92.4489 19.8347 92.4489 16.4C92.4489 12.9653 93.2489 10.416 94.8489 8.752C96.4489 7.06667 99.0409 6.224 102.625 6.224C104.908 6.224 106.625 6.49067 107.777 7.024L106.849 12.24C106.166 12.112 105.558 12.016 105.025 11.952C104.492 11.8667 104.022 11.824 103.617 11.824C101.676 11.824 100.705 12.5067 100.705 13.872V20.752C101.068 20.816 101.484 20.8693 101.953 20.912C102.444 20.9547 102.988 20.976 103.585 20.976C104.78 20.976 106.017 20.7307 107.297 20.24ZM111.61 11.76H109.69V6.8H111.61V3.728L119.29 1.808V6.8H121.946V11.76H119.29V20.496C119.61 20.56 119.962 20.624 120.346 20.688C120.73 20.7307 121.135 20.7627 121.562 20.784L121.21 26.416C117.711 26.416 115.429 26.224 114.362 25.84C113.466 25.52 112.783 25.1147 112.314 24.624C111.845 24.112 111.61 23.3653 111.61 22.384V11.76ZM149.764 19.856V26H134.404V2H142.084V19.856H149.764ZM159.553 26H151.873V7.76L159.553 6.8V26ZM151.457 3.184C151.457 2.608 151.521 2.128 151.649 1.744C151.777 1.33867 152.001 1.01867 152.321 0.783998C152.641 0.527999 153.078 0.346666 153.633 0.239998C154.188 0.133331 154.892 0.079998 155.745 0.079998C156.598 0.079998 157.292 0.133331 157.825 0.239998C158.38 0.346666 158.817 0.527999 159.137 0.783998C159.457 1.01867 159.681 1.33867 159.809 1.744C159.937 2.128 160.001 2.608 160.001 3.184C160.001 3.76 159.937 4.24 159.809 4.624C159.681 5.008 159.457 5.328 159.137 5.584C158.817 5.81867 158.38 5.98933 157.825 6.096C157.292 6.18133 156.598 6.224 155.745 6.224C155.126 6.224 154.55 6.20267 154.017 6.16C153.505 6.11733 153.057 6 152.673 5.808C152.289 5.59467 151.99 5.28533 151.777 4.88C151.564 4.47467 151.457 3.90933 151.457 3.184ZM165.26 7.568C166.903 6.672 169.154 6.224 172.012 6.224C174.892 6.224 177.527 6.61867 179.916 7.408L179.02 12.624C178.018 12.3253 177.026 12.112 176.044 11.984C175.063 11.856 174.06 11.792 173.036 11.792C172.738 11.792 172.364 11.8027 171.916 11.824C171.49 11.8453 170.999 11.888 170.444 11.952V13.168C171.618 13.168 172.823 13.232 174.06 13.36C175.298 13.4667 176.418 13.744 177.42 14.192C178.444 14.6187 179.276 15.2693 179.916 16.144C180.578 16.9973 180.908 18.1707 180.908 19.664C180.908 20.7093 180.791 21.648 180.556 22.48C180.322 23.2907 179.959 23.9413 179.468 24.432C178.956 24.9227 178.423 25.3173 177.868 25.616C177.335 25.9147 176.631 26.128 175.756 26.256C175.074 26.3627 174.338 26.4373 173.548 26.48C172.78 26.544 171.948 26.576 171.052 26.576C167.916 26.576 165.047 26.2027 162.444 25.456L163.404 20.016C164.492 20.336 165.612 20.5813 166.764 20.752C167.916 20.9227 169.122 21.008 170.38 21.008C170.956 21.008 171.5 20.9973 172.012 20.976C172.546 20.9547 173.058 20.912 173.548 20.848V19.632C171.5 19.632 169.783 19.504 168.396 19.248C167.031 18.9707 165.922 18.5547 165.068 18C164.236 17.4453 163.639 16.72 163.276 15.824C162.935 14.928 162.764 13.8613 162.764 12.624C162.764 10.1493 163.596 8.464 165.26 7.568ZM184.36 11.76H182.44V6.8H184.36V3.728L192.04 1.808V6.8H194.696V11.76H192.04V20.496C192.36 20.56 192.712 20.624 193.096 20.688C193.48 20.7307 193.885 20.7627 194.312 20.784L193.96 26.416C190.461 26.416 188.179 26.224 187.112 25.84C186.216 25.52 185.533 25.1147 185.064 24.624C184.595 24.112 184.36 23.3653 184.36 22.384V11.76Z" fill="black"/>
</svg>
