<svg width="15" height="20" viewBox="0 0 15 20" fill="none" xmlns="http://www.w3.org/2000/svg">
<path fill-rule="evenodd" clip-rule="evenodd" d="M2.81405 1.875C2.58957 1.875 2.35884 1.97018 2.17726 2.16528C1.99349 2.36272 1.87935 2.64442 1.87935 2.95139V17.1586L6.92707 13.2847C7.26484 13.0255 7.73516 13.0255 8.07293 13.2847L13.1206 17.1586V2.95139C13.1206 2.64442 13.0065 2.36272 12.8227 2.16528C12.6412 1.97018 12.4104 1.875 12.1859 1.875H2.81405ZM0.80008 0.889431C1.32153 0.329173 2.0443 0 2.81405 0H12.1859C12.9557 0 13.6785 0.329174 14.1999 0.889431C14.7192 1.44735 15 2.19013 15 2.95139V19.0625C15 19.4197 14.7966 19.7458 14.4754 19.9036C14.1543 20.0613 13.7711 20.0233 13.4874 19.8056L7.5 15.2106L1.51261 19.8056C1.22886 20.0233 0.845736 20.0613 0.524572 19.9036C0.203408 19.7458 0 19.4197 0 19.0625V2.95139C0 2.19013 0.280814 1.44735 0.80008 0.889431Z" fill="#3F434A"/>
</svg>
