<svg width="20" height="20" viewBox="0 0 20 20" fill="none" xmlns="http://www.w3.org/2000/svg">
<path fill-rule="evenodd" clip-rule="evenodd" d="M2.95139 1.875C2.66591 1.875 2.39213 1.9884 2.19027 2.19027C1.9884 2.39213 1.875 2.66591 1.875 2.95139V17.0486C1.875 17.3341 1.9884 17.6079 2.19027 17.8097C2.39213 18.0116 2.66591 18.125 2.95139 18.125H6.97916C7.49693 18.125 7.91666 18.5447 7.91666 19.0625C7.91666 19.5803 7.49693 20 6.97916 20H2.95139C2.16863 20 1.41793 19.6891 0.864441 19.1356C0.310949 18.5821 0 17.8314 0 17.0486V2.95139C0 2.16863 0.310949 1.41793 0.864441 0.864442C1.41793 0.310949 2.16863 0 2.95139 0H6.97916C7.49693 0 7.91666 0.419733 7.91666 0.9375C7.91666 1.45527 7.49693 1.875 6.97916 1.875H2.95139ZM13.3649 4.30237C13.731 3.93626 14.3246 3.93626 14.6907 4.30237L19.7254 9.3371C19.8246 9.43629 19.8969 9.55218 19.9424 9.67573C19.9707 9.75249 19.9892 9.83397 19.9965 9.91867C20.0081 10.0525 19.991 10.1883 19.9453 10.3162C19.9001 10.4428 19.8268 10.5616 19.7254 10.6629L14.6907 15.6976C14.3246 16.0638 13.731 16.0638 13.3649 15.6976C12.9988 15.3315 12.9988 14.7379 13.3649 14.3718L16.7992 10.9375H6.97914C6.46137 10.9375 6.04164 10.5178 6.04164 10C6.04164 9.48223 6.46137 9.0625 6.97914 9.0625H16.7992L13.3649 5.6282C12.9988 5.26208 12.9988 4.66849 13.3649 4.30237Z" fill="#3F434A"/>
</svg>
