<svg width="18" height="20" viewBox="0 0 18 20" fill="none" xmlns="http://www.w3.org/2000/svg">
<path fill-rule="evenodd" clip-rule="evenodd" d="M11.9176 4.66666C11.9176 6.19158 10.6288 7.45833 9.00001 7.45833C7.37123 7.45833 6.08242 6.19158 6.08242 4.66666C6.08242 3.14175 7.37123 1.875 9.00001 1.875C10.6288 1.875 11.9176 3.14175 11.9176 4.66666ZM13.8462 4.66666C13.8462 7.24399 11.6765 9.33333 9.00001 9.33333C6.32355 9.33333 4.15385 7.24399 4.15385 4.66666C4.15385 2.08934 6.32355 0 9.00001 0C11.6765 0 13.8462 2.08934 13.8462 4.66666ZM7.02439 12.5417H10.9756C13.7172 12.5417 16.0714 14.8138 16.0714 17.7778C16.0714 17.8985 16.0246 17.9911 15.9661 18.0504C15.9088 18.1083 15.8528 18.125 15.8049 18.125H2.19512C2.14718 18.125 2.09117 18.1083 2.03393 18.0504C1.97537 17.9911 1.92857 17.8985 1.92857 17.7778C1.92857 14.8138 4.28281 12.5417 7.02439 12.5417ZM0 17.7778C0 13.8504 3.14493 10.6667 7.02439 10.6667H10.9756C14.8551 10.6667 18 13.8504 18 17.7778C18 19.0051 17.0172 20 15.8049 20H2.19512C0.982789 20 0 19.0051 0 17.7778Z" fill="#3F434A"/>
</svg>
