<svg width="20" height="20" viewBox="0 0 20 20" fill="none" xmlns="http://www.w3.org/2000/svg">
<path d="M10 0C4.486 0 0 4.486 0 10C0 15.514 4.486 20 10 20C15.514 20 20 15.514 20 10C20 4.486 15.514 0 10 0ZM10 18C5.589 18 2 14.411 2 10C2 5.589 5.589 2 10 2C14.411 2 18 5.589 18 10C18 14.411 14.411 18 10 18Z" fill="#3F434A"/>
<path d="M9 9.60024C9 9.26887 9.26863 9.00024 9.6 9.00024H10.4C10.7314 9.00024 11 9.26887 11 9.60024V14.4002C11 14.7316 10.7314 15.0002 10.4 15.0002H9.6C9.26863 15.0002 9 14.7316 9 14.4002V9.60024ZM9 5.60024C9 5.26887 9.26863 5.00024 9.6 5.00024H10.4C10.7314 5.00024 11 5.26887 11 5.60024V6.40024C11 6.73162 10.7314 7.00024 10.4 7.00024H9.6C9.26863 7.00024 9 6.73162 9 6.40024V5.60024Z" fill="#3F434A"/>
</svg>
